<?xml version="1.0" encoding="utf-8"?>
<!-- Generator: Adobe Illustrator 22.1.0, SVG Export Plug-In . SVG Version: 6.00 Build 0)  -->
<svg version="1.1" id="Layer_1" xmlns="http://www.w3.org/2000/svg" xmlns:xlink="http://www.w3.org/1999/xlink" x="0px" y="0px"
	 viewBox="0 0 300 100" style="enable-background:new 0 0 300 100;" xml:space="preserve">
<g>
	<path d="M40.9,57.6H19.5l-4.8,10.7H0L20.6,18h19.3l21.6,50.3H45.8L40.9,57.6z M37.2,48.1c-0.4-1.4-0.8-2.7-1.2-3.8
		c-0.4-1.1-0.8-2.4-1.3-3.9c-0.5-1.4-1-2.9-1.5-4.4c-0.5-1.5-1-2.9-1.5-4.2c-0.5-1.4-1-2.5-1.3-3.5c-1.5,3.7-2.7,7-3.9,9.9
		c-0.5,1.2-1,2.5-1.4,3.6c-0.5,1.2-0.9,2.2-1.3,3.1c-0.4,0.9-0.8,1.9-1.1,3.1H37.2z"/>
	<path d="M111.2,31.2v35.4c0,2.4-0.4,4.6-1.2,6.7c-0.8,2.1-2.2,4-4.2,5.6c-2,1.6-4.6,2.9-8,3.9c-3.3,1-7.5,1.4-12.6,1.4
		c-2.1,0-4.1-0.1-6-0.4c-1.9-0.3-3.5-0.6-4.9-0.9c-1.7-0.4-3.2-0.8-4.7-1.4l0.8-9.6c1.5,0.5,3,1,4.6,1.4c1.4,0.4,3,0.7,4.7,1
		c1.7,0.3,3.6,0.4,5.4,0.4c3.1,0,5.5-0.5,7.2-1.4c1.7-1,2.9-2.1,3.7-3.5c0.8-1.4,1.2-2.8,1.3-4.2c0.1-1.5,0.2-2.7,0.2-3.7
		c-1.2,1.3-2.3,2.4-3.4,3.2c-1.1,0.8-2.5,1.6-4.2,2.2c-1.7,0.7-3.6,1-5.7,1c-2.4,0-4.8-0.3-7.1-1c-2.3-0.6-4.5-1.7-6.3-3.2
		c-1.9-1.5-3.4-3.5-4.6-5.9c-1.2-2.4-1.7-5.4-1.7-9c0-3.6,0.5-6.6,1.6-9c1-2.4,2.5-4.4,4.3-5.9c1.8-1.5,3.9-2.6,6.3-3.3
		c2.4-0.7,4.9-1,7.6-1c2.8,0,5.1,0.4,6.9,1.2c1.8,0.8,3.2,1.7,4.2,2.6c1,1,1.9,2.2,2.6,3.8l1-6.3H111.2z M97.1,49.1
		c0-1.7-0.2-3.1-0.7-4.3c-0.5-1.2-1.1-2.2-1.9-2.9c-0.8-0.7-1.7-1.3-2.8-1.6c-1.1-0.3-2.2-0.5-3.3-0.5s-2.2,0.2-3.3,0.5
		c-1,0.3-2,0.9-2.8,1.7c-0.8,0.8-1.5,1.7-1.9,2.9c-0.5,1.2-0.7,2.6-0.7,4.3c0,1.7,0.2,3.1,0.7,4.3c0.5,1.2,1.1,2.1,1.9,2.9
		s1.7,1.3,2.8,1.6c1,0.3,2.1,0.5,3.3,0.5s2.2-0.2,3.3-0.5c1.1-0.3,2-0.9,2.8-1.6c0.8-0.7,1.5-1.7,1.9-2.9
		C96.9,52.2,97.1,50.7,97.1,49.1z"/>
	<path d="M160.7,68.3h-11.5l-1.5-5.7c-1.7,2.3-3.6,3.9-5.7,4.9c-2.1,1-4.6,1.5-7.6,1.5c-2.1,0-4.1-0.2-6-0.7c-1.9-0.5-3.6-1.1-5-2
		c-1.5-0.9-2.6-2-3.5-3.3c-0.9-1.3-1.3-2.9-1.3-4.7c-0.1-2.4,0.3-4.4,1.2-6c0.8-1.6,2-3,3.5-4c1.5-1.1,3.2-1.9,5.1-2.4
		c1.9-0.6,4-1,6.1-1.2c2.1-0.2,4.3-0.3,6.5-0.3c2.2,0,4.2,0.1,6.2,0.2v-0.2c0-1.9-0.6-3.3-1.7-4.1c-1.1-0.9-2.5-1.5-4.1-1.7
		c-1.6-0.2-3.4-0.2-5.4,0c-2,0.3-3.8,0.6-5.5,1c-1.7,0.4-3.2,0.9-4.4,1.3c-1.2,0.4-1.9,0.7-2.1,0.8v-8.9c0.1,0,0.6-0.2,1.6-0.5
		c1-0.3,2.2-0.6,3.8-0.9c1.5-0.3,3.2-0.6,5-0.9c1.8-0.3,3.6-0.4,5.4-0.4c1.8,0,3.9,0.2,6.3,0.6c2.4,0.4,4.7,1.1,6.9,2.1
		c2.2,1,4.1,2.5,5.6,4.3c1.5,1.8,2.3,4.2,2.3,7.1V68.3z M146.9,51.6c-1.8,0-3.5,0-5.3,0c-1.7,0-3.3,0.2-4.8,0.4
		c-1.4,0.3-2.6,0.7-3.4,1.4c-0.9,0.6-1.3,1.6-1.3,2.8c0,1.3,0.5,2.4,1.4,3.1c0.9,0.7,1.9,1.1,3.1,1.1c1.5,0,2.9-0.2,4.2-0.6
		c1.3-0.4,2.4-0.9,3.3-1.6c0.9-0.7,1.6-1.5,2.1-2.4c0.5-0.9,0.8-1.9,0.8-3V51.6z"/>
	<path d="M196,29.9c2.2,0,4.3,0.2,6.4,0.6c2.1,0.4,4,1.2,5.7,2.4c1.7,1.2,3.1,2.9,4.2,5.1c1.1,2.2,1.6,5.2,1.6,8.8v21.5h-13.5V51.2
		c0-3.6-0.6-6.3-1.9-8.1c-1.3-1.8-3.1-2.8-5.6-2.8c-1.7,0-3.2,0.3-4.4,1c-1.2,0.7-2.1,1.6-2.9,2.8c-0.7,1.2-1.3,2.6-1.6,4.2
		c-0.3,1.6-0.5,3.4-0.5,5.3v14.7h-14.5V30.8H180l2.4,6.9c1-1.6,2-2.9,3.1-3.9c1.1-1,2.5-1.9,4.2-2.7C191.4,30.3,193.5,29.9,196,29.9
		z"/>
	<path d="M246.7,69.1c-5.1,0-9.3-0.6-12.7-1.8c-3.3-1.2-6-2.7-8-4.5c-2-1.8-3.3-3.9-4.1-6.3c-0.8-2.3-1.2-4.6-1.2-6.9
		c0-2.3,0.4-4.6,1.2-6.9c0.8-2.3,2-4.4,3.8-6.3c1.7-1.9,4-3.4,6.9-4.6c2.8-1.2,6.3-1.8,10.3-1.8c4.1,0,7.6,0.6,10.4,1.8
		c2.8,1.2,5,2.7,6.7,4.6c1.7,1.9,2.9,4,3.6,6.3c0.7,2.3,1.1,4.6,1.1,6.9v3.6h-29.1c0.1,0.6,0.3,1.3,0.8,2.1c0.5,0.8,1.2,1.6,2.1,2.4
		c1,0.7,2.2,1.4,3.8,1.9c1.5,0.5,3.4,0.8,5.6,0.8c2,0,3.9-0.2,5.6-0.5c1.7-0.3,3.1-0.7,4.3-1c1.4-0.5,2.6-1,3.6-1.6v8.8
		c0,0-0.4,0.2-1.3,0.5c-0.8,0.3-1.9,0.6-3.3,1c-1.4,0.4-2.9,0.7-4.7,1C250.4,68.9,248.6,69.1,246.7,69.1z M248,26.2h-9.8l-10.7-10.4
		h13.4L248,26.2z M251.6,45.8c0-0.8-0.1-1.7-0.4-2.6c-0.3-0.9-0.7-1.8-1.4-2.5c-0.6-0.8-1.5-1.4-2.5-1.9c-1-0.5-2.3-0.8-3.8-0.8
		s-2.8,0.3-3.8,0.8c-1,0.5-1.8,1.1-2.4,1.9c-0.6,0.8-1,1.6-1.3,2.5c-0.3,0.9-0.4,1.8-0.4,2.6H251.6z"/>
</g>
</svg>
