<?xml version="1.0" encoding="utf-8"?>
<!-- Generator: Adobe Illustrator 22.1.0, SVG Export Plug-In . SVG Version: 6.00 Build 0)  -->
<svg version="1.1" id="Layer_1" xmlns="http://www.w3.org/2000/svg" xmlns:xlink="http://www.w3.org/1999/xlink" x="0px" y="0px"
	 viewBox="0 0 500 500" style="enable-background:new 0 0 500 500;" xml:space="preserve">
<style type="text/css">
	.st0{enable-background:new    ;}
	.st1{clip-path:url(#SVGID_2_);fill:none;stroke:#000000;stroke-width:1.6216;stroke-miterlimit:10;}
	.st2{clip-path:url(#SVGID_4_);fill:none;stroke:#000000;stroke-width:1.6216;stroke-miterlimit:10;}
	.st3{clip-path:url(#SVGID_6_);enable-background:new    ;}
	.st4{fill:none;stroke:#000000;stroke-width:1.6216;stroke-miterlimit:10;}
	.st5{clip-path:url(#SVGID_6_);fill:none;stroke:#000000;stroke-width:1.6216;stroke-miterlimit:10;}
	.st6{clip-path:url(#SVGID_8_);enable-background:new    ;}
	.st7{clip-path:url(#SVGID_8_);fill:none;stroke:#000000;stroke-width:1.6216;stroke-miterlimit:10;}
	.st8{clip-path:url(#SVGID_10_);enable-background:new    ;}
	.st9{clip-path:url(#SVGID_10_);fill:none;stroke:#000000;stroke-width:1.6216;stroke-miterlimit:10;}
	.st10{clip-path:url(#SVGID_12_);enable-background:new    ;}
	.st11{clip-path:url(#SVGID_12_);fill:none;stroke:#000000;stroke-width:1.6216;stroke-miterlimit:10;}
	.st12{clip-path:url(#SVGID_14_);enable-background:new    ;}
	.st13{clip-path:url(#SVGID_14_);fill:none;stroke:#000000;stroke-width:1.6216;stroke-miterlimit:10;}
	.st14{clip-path:url(#SVGID_16_);fill:none;stroke:#000000;stroke-width:1.6216;stroke-miterlimit:10;}
	.st15{clip-path:url(#SVGID_18_);fill:none;stroke:#000000;stroke-width:1.6216;stroke-miterlimit:10;}
	.st16{clip-path:url(#SVGID_20_);enable-background:new    ;}
	.st17{clip-path:url(#SVGID_20_);fill:none;stroke:#000000;stroke-width:1.6216;stroke-miterlimit:10;}
	.st18{clip-path:url(#SVGID_22_);enable-background:new    ;}
	.st19{clip-path:url(#SVGID_22_);fill:none;stroke:#000000;stroke-width:1.6216;stroke-miterlimit:10;}
	.st20{clip-path:url(#SVGID_24_);enable-background:new    ;}
	.st21{clip-path:url(#SVGID_24_);fill:none;stroke:#000000;stroke-width:1.6216;stroke-miterlimit:10;}
	.st22{clip-path:url(#SVGID_26_);fill:none;stroke:#000000;stroke-width:1.6216;stroke-miterlimit:10;}
	.st23{clip-path:url(#SVGID_28_);enable-background:new    ;}
	.st24{clip-path:url(#SVGID_28_);fill:none;stroke:#000000;stroke-width:1.6216;stroke-miterlimit:10;}
	.st25{clip-path:url(#SVGID_30_);enable-background:new    ;}
	.st26{clip-path:url(#SVGID_30_);fill:none;stroke:#000000;stroke-width:1.6216;stroke-miterlimit:10;}
	.st27{clip-path:url(#SVGID_32_);enable-background:new    ;}
	.st28{clip-path:url(#SVGID_32_);fill:none;stroke:#000000;stroke-width:1.6216;stroke-miterlimit:10;}
	.st29{clip-path:url(#SVGID_34_);enable-background:new    ;}
	.st30{clip-path:url(#SVGID_34_);fill:none;stroke:#000000;stroke-width:1.6216;stroke-miterlimit:10;}
	.st31{clip-path:url(#SVGID_36_);enable-background:new    ;}
	.st32{clip-path:url(#SVGID_36_);fill:none;stroke:#000000;stroke-width:1.6216;stroke-miterlimit:10;}
</style>
<g>
	<g class="st0">
		<g class="st0">
			<defs>
				<path id="SVGID_1_" class="st0" d="M453.2,211.9c6.8,21.1,10.3,42,10.2,62.5c0,16.3-1.6,30.5-4.6,42.5c-3,12.1-6.8,21.4-11.5,28
					c-4.7,6.6-10.2,11.8-16.4,15.5c-6.3,3.7-12.5,5.8-18.6,6.4c-6.1,0.6-12.3,0.4-18.5-0.5c-6.3-0.9-11.6-2.2-15.9-3.8
					c-4.4-1.6-8-3.3-11.1-5c-4.8-2.8-9.4-6.1-13.6-9.9c-4.2-3.8-7.6-7.1-10-10c-2.4-2.8-4.9-6.4-7.5-10.9c-2.6-4.4-4.3-7.4-5-9
					c-0.7-1.6-1.9-4.2-3.6-7.9c-17.9,6.2-36.8,3.5-56.9-8.1c-23.1-13.3-41.1-30.7-53.9-52c-12.8-21.3-19.2-43.8-19.2-67.4
					c0.1-17.9,3.5-32.9,10.2-45.1c6.7-12.2,15.4-20.7,26.2-25.4c10.8-4.7,23.1-6.2,36.9-4.6c13.8,1.6,27.8,6.5,41.9,14.6
					c18.8,10.8,33.4,26,43.9,45.3l5.9-12.9l37.6,21.7c-3.8,15.5-7.5,30.1-11,44c-3.6,13.8-6.4,24.8-8.6,33c-2.1,8.2-4.2,15.8-6,22.9
					c-1.9,7.1-3.3,12.4-4.2,15.9c-0.9,3.4-1.7,6.6-2.4,9.5s-1.1,5.1-1.3,6.6c-0.2,1.5-0.3,3.1-0.3,4.7c0,7.6,2.7,13,8.1,16.1
					c2.5,1.5,5.8,2.2,9.8,2.2c4,0,8.5-1.3,13.5-4c5-2.7,9.6-6.7,13.8-12c4.3-5.2,7.9-13.2,10.8-23.9c2.9-10.7,4.4-23.3,4.5-37.8
					c0.1-32.1-9-63.2-27.2-93.2c-18.2-30.1-43.4-54.4-75.6-73c-16.5-9.5-32.8-15.9-48.8-19c-16-3.1-30.6-2.9-43.7,0.5
					c-13.1,3.5-24.7,9.5-34.7,18.2c-10,8.7-17.9,20.1-23.5,34.5c-5.6,14.4-8.4,30.6-8.4,48.7c0,16,2.8,32.7,8.6,50.1
					c5.8,17.5,13.9,34.3,24.3,50.5c10.4,16.2,23.3,31.7,38.5,46.4c15.3,14.7,31.9,27.3,49.8,37.6c20,11.5,38.9,19.5,56.7,23.8
					c17.8,4.3,38.4,6.3,61.7,6l16.6,33.2c-8.8,0.5-16.9,0.7-24.6,0.4c-7.6-0.3-17.5-1.2-29.4-2.8c-12-1.6-25-5-38.8-10.1
					c-13.9-5.1-28-11.8-42.3-20c-20-11.5-38.5-24.7-55.5-39.4c-17-14.8-31.7-30.1-44.2-46.1c-12.4-16-23.1-32.6-31.8-49.8
					c-8.7-17.2-15.3-34.3-19.7-51.4c-4.3-17.1-6.5-33.7-6.5-49.8c0.1-21.6,2.9-40.4,8.5-56.4c5.6-16,13.2-28.6,22.9-37.7
					c9.7-9,21-15.7,34-20c13-4.3,27-5.9,42-4.8c15,1.1,30.4,4.2,46.4,9.5c16,5.3,31.9,12.5,47.8,21.6c18.9,10.9,36.5,24.3,52.9,40.1
					c16.4,15.9,30.6,33.1,42.5,51.6C437,170.8,446.4,190.7,453.2,211.9z M336.6,230.7c1.5-5.9,2.2-11.8,2.2-17.6
					c0-11.8-2.4-22.7-7.3-32.6c-4.9-9.9-11.9-17.5-21.1-22.8c-18.2-10.5-34-10.9-47.4-1.3c-13.4,9.7-20.2,26.8-20.2,51.3
					c0,13.7,2.7,26.2,8.4,37.6c5.6,11.4,13.2,19.9,22.7,25.4c9.7,5.6,18.9,7,27.7,4.3c8.8-2.7,16-8,21.8-15.9
					C329.2,251.3,333.6,241.8,336.6,230.7"/>
			</defs>
			<clipPath id="SVGID_2_">
				<use xlink:href="#SVGID_1_"  style="overflow:visible;"/>
			</clipPath>
			<path class="st1" d="M453.2,211.9c6.8,21.1,10.3,42,10.2,62.5c0,16.3-1.6,30.5-4.6,42.5c-3,12.1-6.8,21.4-11.5,28
				c-4.7,6.6-10.2,11.8-16.4,15.5c-6.3,3.7-12.5,5.8-18.6,6.4c-6.1,0.6-12.3,0.4-18.5-0.5c-6.3-0.9-11.6-2.2-15.9-3.8
				c-4.4-1.6-8-3.3-11.1-5c-4.8-2.8-9.4-6.1-13.6-9.9c-4.2-3.8-7.6-7.1-10-10c-2.4-2.8-4.9-6.4-7.5-10.9c-2.6-4.4-4.3-7.4-5-9
				c-0.7-1.6-1.9-4.2-3.6-7.9c-17.9,6.2-36.8,3.5-56.9-8.1c-23.1-13.3-41.1-30.7-53.9-52c-12.8-21.3-19.2-43.8-19.2-67.4
				c0.1-17.9,3.5-32.9,10.2-45.1c6.7-12.2,15.4-20.7,26.2-25.4c10.8-4.7,23.1-6.2,36.9-4.6c13.8,1.6,27.8,6.5,41.9,14.6
				c18.8,10.8,33.4,26,43.9,45.3l5.9-12.9l37.6,21.7c-3.8,15.5-7.5,30.1-11,44c-3.6,13.8-6.4,24.8-8.6,33c-2.1,8.2-4.2,15.8-6,22.9
				c-1.9,7.1-3.3,12.4-4.2,15.9c-0.9,3.4-1.7,6.6-2.4,9.5s-1.1,5.1-1.3,6.6c-0.2,1.5-0.3,3.1-0.3,4.7c0,7.6,2.7,13,8.1,16.1
				c2.5,1.5,5.8,2.2,9.8,2.2c4,0,8.5-1.3,13.5-4c5-2.7,9.6-6.7,13.8-12c4.3-5.2,7.9-13.2,10.8-23.9c2.9-10.7,4.4-23.3,4.5-37.8
				c0.1-32.1-9-63.2-27.2-93.2c-18.2-30.1-43.4-54.4-75.6-73c-16.5-9.5-32.8-15.9-48.8-19c-16-3.1-30.6-2.9-43.7,0.5
				c-13.1,3.5-24.7,9.5-34.7,18.2c-10,8.7-17.9,20.1-23.5,34.5c-5.6,14.4-8.4,30.6-8.4,48.7c0,16,2.8,32.7,8.6,50.1
				c5.8,17.5,13.9,34.3,24.3,50.5c10.4,16.2,23.3,31.7,38.5,46.4c15.3,14.7,31.9,27.3,49.8,37.6c20,11.5,38.9,19.5,56.7,23.8
				c17.8,4.3,38.4,6.3,61.7,6l16.6,33.2c-8.8,0.5-16.9,0.7-24.6,0.4c-7.6-0.3-17.5-1.2-29.4-2.8c-12-1.6-25-5-38.8-10.1
				c-13.9-5.1-28-11.8-42.3-20c-20-11.5-38.5-24.7-55.5-39.4c-17-14.8-31.7-30.1-44.2-46.1c-12.4-16-23.1-32.6-31.8-49.8
				c-8.7-17.2-15.3-34.3-19.7-51.4c-4.3-17.1-6.5-33.7-6.5-49.8c0.1-21.6,2.9-40.4,8.5-56.4c5.6-16,13.2-28.6,22.9-37.7
				c9.7-9,21-15.7,34-20c13-4.3,27-5.9,42-4.8c15,1.1,30.4,4.2,46.4,9.5c16,5.3,31.9,12.5,47.8,21.6c18.9,10.9,36.5,24.3,52.9,40.1
				c16.4,15.9,30.6,33.1,42.5,51.6C437,170.8,446.4,190.7,453.2,211.9z M336.6,230.7c1.5-5.9,2.2-11.8,2.2-17.6
				c0-11.8-2.4-22.7-7.3-32.6c-4.9-9.9-11.9-17.5-21.1-22.8c-18.2-10.5-34-10.9-47.4-1.3c-13.4,9.7-20.2,26.8-20.2,51.3
				c0,13.7,2.7,26.2,8.4,37.6c5.6,11.4,13.2,19.9,22.7,25.4c9.7,5.6,18.9,7,27.7,4.3c8.8-2.7,16-8,21.8-15.9
				C329.2,251.3,333.6,241.8,336.6,230.7"/>
		</g>
		<g class="st0">
			<defs>
				<path id="SVGID_3_" class="st0" d="M361.8,265c6.8,21.1,10.3,42,10.2,62.5c0,16.3-1.6,30.5-4.6,42.5c-3,12.1-6.8,21.4-11.5,28
					c-4.7,6.6-10.2,11.8-16.4,15.5c-6.3,3.7-12.5,5.8-18.6,6.4c-6.1,0.6-12.3,0.4-18.5-0.5c-6.3-0.9-11.6-2.2-15.9-3.8
					c-4.4-1.6-8-3.3-11.1-5c-4.8-2.8-9.4-6.1-13.6-9.9c-4.2-3.8-7.6-7.1-10-10c-2.4-2.8-4.9-6.4-7.5-10.9c-2.6-4.4-4.3-7.4-5-9
					c-0.7-1.6-1.9-4.2-3.6-7.9c-17.9,6.2-36.8,3.5-56.9-8.1c-23.1-13.3-41.1-30.7-53.9-52c-12.8-21.3-19.2-43.8-19.2-67.4
					c0.1-17.9,3.5-32.9,10.2-45.1c6.7-12.2,15.4-20.7,26.2-25.4c10.8-4.7,23.1-6.2,36.9-4.6c13.8,1.6,27.8,6.5,41.9,14.6
					c18.8,10.8,33.4,26,43.9,45.3l5.9-12.9l37.6,21.7c-3.8,15.5-7.5,30.1-11,44c-3.6,13.8-6.4,24.8-8.6,33c-2.1,8.2-4.2,15.8-6,22.9
					c-1.9,7.1-3.3,12.4-4.2,15.9c-0.9,3.4-1.7,6.6-2.4,9.5c-0.7,2.9-1.1,5.1-1.3,6.6c-0.2,1.5-0.3,3.1-0.3,4.7
					c0,7.6,2.7,13,8.1,16.1c2.5,1.5,5.8,2.2,9.8,2.2c4,0,8.5-1.3,13.5-4c5-2.7,9.6-6.7,13.8-12c4.3-5.2,7.9-13.2,10.8-23.9
					c2.9-10.7,4.4-23.3,4.5-37.8c0.1-32.1-9-63.2-27.2-93.2c-18.2-30.1-43.4-54.4-75.6-73c-16.5-9.5-32.8-15.9-48.8-19
					c-16-3.1-30.6-2.9-43.7,0.5c-13.1,3.5-24.7,9.5-34.7,18.2c-10,8.7-17.9,20.1-23.5,34.5c-5.6,14.4-8.4,30.6-8.4,48.7
					c0,16,2.8,32.7,8.6,50.1c5.8,17.5,13.9,34.3,24.3,50.5c10.4,16.2,23.3,31.7,38.5,46.4c15.3,14.7,31.9,27.3,49.8,37.6
					c20,11.5,38.9,19.5,56.7,23.8c17.8,4.3,38.4,6.3,61.7,6l16.6,33.2c-8.8,0.5-16.9,0.7-24.6,0.4c-7.6-0.3-17.5-1.2-29.4-2.8
					c-12-1.6-25-5-38.8-10.1c-13.9-5.1-28-11.8-42.3-20c-20-11.5-38.5-24.7-55.5-39.4c-17-14.8-31.7-30.1-44.2-46.1
					c-12.4-16-23.1-32.6-31.8-49.8C54,285.3,47.4,268.2,43,251.1c-4.3-17.1-6.5-33.7-6.5-49.8c0.1-21.6,2.9-40.4,8.5-56.4
					c5.6-16,13.2-28.6,22.9-37.7c9.7-9,21-15.7,34-20c13-4.3,27-5.9,42-4.8c15,1.1,30.4,4.2,46.4,9.5c16,5.3,31.9,12.5,47.8,21.6
					c18.9,10.9,36.5,24.3,52.9,40.1c16.4,15.9,30.6,33.1,42.5,51.6C345.5,223.9,354.9,243.8,361.8,265z M245.2,283.9
					c1.5-5.9,2.2-11.8,2.2-17.6c0-11.8-2.4-22.7-7.3-32.6c-4.9-9.9-11.9-17.5-21.1-22.8c-18.2-10.5-34-10.9-47.4-1.3
					c-13.4,9.7-20.2,26.8-20.2,51.3c0,13.7,2.7,26.2,8.4,37.6c5.6,11.4,13.2,19.9,22.7,25.4c9.7,5.6,18.9,7,27.7,4.3
					c8.8-2.7,16-8,21.8-15.9C237.7,304.4,242.1,294.9,245.2,283.9"/>
			</defs>
			<clipPath id="SVGID_4_">
				<use xlink:href="#SVGID_3_"  style="overflow:visible;"/>
			</clipPath>
			<path class="st2" d="M361.8,265c6.8,21.1,10.3,42,10.2,62.5c0,16.3-1.6,30.5-4.6,42.5c-3,12.1-6.8,21.4-11.5,28
				c-4.7,6.6-10.2,11.8-16.4,15.5c-6.3,3.7-12.5,5.8-18.6,6.4c-6.1,0.6-12.3,0.4-18.5-0.5c-6.3-0.9-11.6-2.2-15.9-3.8
				c-4.4-1.6-8-3.3-11.1-5c-4.8-2.8-9.4-6.1-13.6-9.9c-4.2-3.8-7.6-7.1-10-10c-2.4-2.8-4.9-6.4-7.5-10.9c-2.6-4.4-4.3-7.4-5-9
				c-0.7-1.6-1.9-4.2-3.6-7.9c-17.9,6.2-36.8,3.5-56.9-8.1c-23.1-13.3-41.1-30.7-53.9-52c-12.8-21.3-19.2-43.8-19.2-67.4
				c0.1-17.9,3.5-32.9,10.2-45.1c6.7-12.2,15.4-20.7,26.2-25.4c10.8-4.7,23.1-6.2,36.9-4.6c13.8,1.6,27.8,6.5,41.9,14.6
				c18.8,10.8,33.4,26,43.9,45.3l5.9-12.9l37.6,21.7c-3.8,15.5-7.5,30.1-11,44c-3.6,13.8-6.4,24.8-8.6,33c-2.1,8.2-4.2,15.8-6,22.9
				c-1.9,7.1-3.3,12.4-4.2,15.9c-0.9,3.4-1.7,6.6-2.4,9.5c-0.7,2.9-1.1,5.1-1.3,6.6c-0.2,1.5-0.3,3.1-0.3,4.7c0,7.6,2.7,13,8.1,16.1
				c2.5,1.5,5.8,2.2,9.8,2.2c4,0,8.5-1.3,13.5-4c5-2.7,9.6-6.7,13.8-12c4.3-5.2,7.9-13.2,10.8-23.9c2.9-10.7,4.4-23.3,4.5-37.8
				c0.1-32.1-9-63.2-27.2-93.2c-18.2-30.1-43.4-54.4-75.6-73c-16.5-9.5-32.8-15.9-48.8-19c-16-3.1-30.6-2.9-43.7,0.5
				c-13.1,3.5-24.7,9.5-34.7,18.2c-10,8.7-17.9,20.1-23.5,34.5c-5.6,14.4-8.4,30.6-8.4,48.7c0,16,2.8,32.7,8.6,50.1
				c5.8,17.5,13.9,34.3,24.3,50.5c10.4,16.2,23.3,31.7,38.5,46.4c15.3,14.7,31.9,27.3,49.8,37.6c20,11.5,38.9,19.5,56.7,23.8
				c17.8,4.3,38.4,6.3,61.7,6l16.6,33.2c-8.8,0.5-16.9,0.7-24.6,0.4c-7.6-0.3-17.5-1.2-29.4-2.8c-12-1.6-25-5-38.8-10.1
				c-13.9-5.1-28-11.8-42.3-20c-20-11.5-38.5-24.7-55.5-39.4c-17-14.8-31.7-30.1-44.2-46.1c-12.4-16-23.1-32.6-31.8-49.8
				C54,285.3,47.4,268.2,43,251.1c-4.3-17.1-6.5-33.7-6.5-49.8c0.1-21.6,2.9-40.4,8.5-56.4c5.6-16,13.2-28.6,22.9-37.7
				c9.7-9,21-15.7,34-20c13-4.3,27-5.9,42-4.8c15,1.1,30.4,4.2,46.4,9.5c16,5.3,31.9,12.5,47.8,21.6c18.9,10.9,36.5,24.3,52.9,40.1
				c16.4,15.9,30.6,33.1,42.5,51.6C345.5,223.9,354.9,243.8,361.8,265z M245.2,283.9c1.5-5.9,2.2-11.8,2.2-17.6
				c0-11.8-2.4-22.7-7.3-32.6c-4.9-9.9-11.9-17.5-21.1-22.8c-18.2-10.5-34-10.9-47.4-1.3c-13.4,9.7-20.2,26.8-20.2,51.3
				c0,13.7,2.7,26.2,8.4,37.6c5.6,11.4,13.2,19.9,22.7,25.4c9.7,5.6,18.9,7,27.7,4.3c8.8-2.7,16-8,21.8-15.9
				C237.7,304.4,242.1,294.9,245.2,283.9"/>
		</g>
		<g class="st0">
			<defs>
				<path id="SVGID_5_" class="st0" d="M361.8,265l91.4-53.1c6.8,21.1,10.3,42,10.2,62.5c0,16.3-1.6,30.5-4.6,42.5
					c-3,12.1-6.8,21.4-11.5,28c-4.7,6.6-10.2,11.8-16.4,15.5l-91.4,53.1c6.2-3.7,11.7-8.8,16.4-15.5c4.7-6.6,8.5-15.9,11.5-28
					c3-12.1,4.6-26.3,4.6-42.5C372.1,307,368.6,286.2,361.8,265z"/>
			</defs>
			<clipPath id="SVGID_6_">
				<use xlink:href="#SVGID_5_"  style="overflow:visible;"/>
			</clipPath>
			<g class="st3">
				<g>
					<path class="st4" d="M361.8,265l91.4-53.1c6.8,21.1,10.3,42,10.2,62.5L372,327.5C372.1,307,368.6,286.2,361.8,265z"/>
					<line class="st4" x1="367.5" y1="286.1" x2="458.9" y2="232.9"/>
					<line class="st4" x1="370.9" y1="306.9" x2="462.3" y2="253.8"/>
				</g>
				<g>
					<path class="st4" d="M372,327.5l91.4-53.1c0,16.3-1.6,30.5-4.6,42.5l-91.4,53.1C370.4,358,372,343.8,372,327.5z"/>
					<line class="st4" x1="371.5" y1="343.1" x2="462.9" y2="290"/>
					<line class="st4" x1="369.9" y1="357.3" x2="461.4" y2="304.1"/>
				</g>
				<g>
					<path class="st4" d="M367.4,370.1l91.4-53.1c-3,12.1-6.8,21.4-11.5,28l-91.4,53.1C360.6,391.5,364.4,382.1,367.4,370.1z"/>
					<line class="st4" x1="364.1" y1="381.2" x2="455.6" y2="328.1"/>
					<line class="st4" x1="360.3" y1="390.5" x2="451.7" y2="337.4"/>
				</g>
				<g>
					<path class="st4" d="M355.9,398.1l91.4-53.1c-4.7,6.6-10.2,11.8-16.4,15.5l-91.4,53.1C345.7,409.8,351.2,404.7,355.9,398.1z"/>
					<line class="st4" x1="350.9" y1="404.2" x2="442.4" y2="351.1"/>
					<line class="st4" x1="345.5" y1="409.3" x2="436.9" y2="356.2"/>
				</g>
			</g>
			<path class="st5" d="M361.8,265l91.4-53.1c6.8,21.1,10.3,42,10.2,62.5c0,16.3-1.6,30.5-4.6,42.5c-3,12.1-6.8,21.4-11.5,28
				c-4.7,6.6-10.2,11.8-16.4,15.5l-91.4,53.1c6.2-3.7,11.7-8.8,16.4-15.5c4.7-6.6,8.5-15.9,11.5-28c3-12.1,4.6-26.3,4.6-42.5
				C372.1,307,368.6,286.2,361.8,265z"/>
		</g>
		<g class="st0">
			<defs>
				<path id="SVGID_7_" class="st0" d="M339.5,413.5c-6.3,3.7-12.5,5.8-18.6,6.4c-6.1,0.6-12.3,0.4-18.5-0.5
					c-6.3-0.9-11.6-2.2-15.9-3.8c-4.4-1.6-8-3.3-11.1-5c-4.8-2.8-9.4-6.1-13.6-9.9c-4.2-3.8-7.6-7.1-10-10
					c-2.4-2.8-4.9-6.4-7.5-10.9c-2.6-4.4-4.3-7.4-5-9l91.4-53.1c0.7,1.6,2.4,4.6,5,9c2.6,4.5,5.1,8,7.5,10.9c2.4,2.8,5.7,6.1,10,10
					c4.2,3.8,8.8,7.1,13.6,9.9c3,1.7,6.7,3.4,11.1,5c4.4,1.6,9.7,2.9,15.9,3.8c6.2,0.9,12.4,1.1,18.5,0.5c6.1-0.6,12.3-2.8,18.6-6.4
					C403.5,376.3,366.9,397.5,339.5,413.5z"/>
			</defs>
			<clipPath id="SVGID_8_">
				<use xlink:href="#SVGID_7_"  style="overflow:visible;"/>
			</clipPath>
			<g class="st6">
				<g>
					<path class="st4" d="M339.5,413.5l91.4-53.1c-6.3,3.7-12.5,5.8-18.6,6.4L320.9,420C327,419.3,333.2,417.2,339.5,413.5z"/>
					<line class="st4" x1="333.2" y1="416.7" x2="424.7" y2="363.5"/>
					<line class="st4" x1="327.1" y1="418.8" x2="418.5" y2="365.7"/>
				</g>
				<g>
					<path class="st4" d="M320.9,420l91.4-53.1c-6.1,0.6-12.3,0.4-18.5-0.5l-91.4,53.1C308.6,420.4,314.8,420.6,320.9,420z"/>
					<line class="st4" x1="314.8" y1="420.3" x2="406.2" y2="367.2"/>
					<line class="st4" x1="308.6" y1="420.1" x2="400" y2="367"/>
				</g>
				<g>
					<path class="st4" d="M302.4,419.5l91.4-53.1c-6.3-0.9-11.6-2.2-15.9-3.8l-91.4,53.1C290.8,417.3,296.1,418.6,302.4,419.5z"/>
					<line class="st4" x1="296.4" y1="418.4" x2="387.9" y2="365.3"/>
					<line class="st4" x1="291.1" y1="417.2" x2="382.6" y2="364"/>
				</g>
				<g>
					<path class="st4" d="M286.5,415.7l91.4-53.1c-4.4-1.6-8-3.3-11.1-5l-91.4,53.1C278.4,412.4,282.1,414,286.5,415.7z"/>
					<line class="st4" x1="282.3" y1="414" x2="373.8" y2="360.9"/>
					<line class="st4" x1="278.6" y1="412.4" x2="370.1" y2="359.2"/>
				</g>
				<g>
					<path class="st4" d="M275.4,410.6l91.4-53.1c-4.8-2.8-9.4-6.1-13.6-9.9l-91.4,53.1C266,404.6,270.6,407.9,275.4,410.6z"/>
					<line class="st4" x1="270.7" y1="407.7" x2="362.1" y2="354.5"/>
					<line class="st4" x1="266.1" y1="404.4" x2="357.5" y2="351.2"/>
				</g>
				<g>
					<path class="st4" d="M261.8,400.7l91.4-53.1c-4.2-3.8-7.6-7.1-10-10l-91.4,53.1C254.2,393.6,257.6,396.9,261.8,400.7z"/>
					<line class="st4" x1="257.9" y1="397.1" x2="349.3" y2="343.9"/>
					<line class="st4" x1="254.5" y1="393.8" x2="346" y2="340.6"/>
				</g>
				<g>
					<path class="st4" d="M251.8,390.8l91.4-53.1c-2.4-2.8-4.9-6.4-7.5-10.9l-91.4,53.1C246.9,384.4,249.4,387.9,251.8,390.8z"/>
					<line class="st4" x1="249.4" y1="387.7" x2="340.8" y2="334.6"/>
					<line class="st4" x1="246.9" y1="384.1" x2="338.3" y2="330.9"/>
				</g>
				<g>
					<path class="st4" d="M244.3,379.9l91.4-53.1c-2.6-4.4-4.3-7.4-5-9l-91.4,53.1C240,372.5,241.7,375.5,244.3,379.9z"/>
					<line class="st4" x1="242" y1="376" x2="333.4" y2="322.8"/>
					<line class="st4" x1="240.3" y1="373" x2="331.8" y2="319.8"/>
				</g>
			</g>
			<path class="st7" d="M339.5,413.5c-6.3,3.7-12.5,5.8-18.6,6.4c-6.1,0.6-12.3,0.4-18.5-0.5c-6.3-0.9-11.6-2.2-15.9-3.8
				c-4.4-1.6-8-3.3-11.1-5c-4.8-2.8-9.4-6.1-13.6-9.9c-4.2-3.8-7.6-7.1-10-10c-2.4-2.8-4.9-6.4-7.5-10.9c-2.6-4.4-4.3-7.4-5-9
				l91.4-53.1c0.7,1.6,2.4,4.6,5,9c2.6,4.5,5.1,8,7.5,10.9c2.4,2.8,5.7,6.1,10,10c4.2,3.8,8.8,7.1,13.6,9.9c3,1.7,6.7,3.4,11.1,5
				c4.4,1.6,9.7,2.9,15.9,3.8c6.2,0.9,12.4,1.1,18.5,0.5c6.1-0.6,12.3-2.8,18.6-6.4C403.5,376.3,366.9,397.5,339.5,413.5z"/>
		</g>
		<g class="st0">
			<defs>
				<path id="SVGID_9_" class="st0" d="M239.3,370.9c-0.7-1.6-1.9-4.2-3.6-7.9l91.4-53.1c1.7,3.7,2.9,6.3,3.6,7.9L239.3,370.9z"/>
			</defs>
			<clipPath id="SVGID_10_">
				<use xlink:href="#SVGID_9_"  style="overflow:visible;"/>
			</clipPath>
			<g class="st8">
				<path class="st4" d="M239.3,370.9l91.4-53.1c-0.7-1.6-1.9-4.2-3.6-7.9L235.7,363C237.4,366.7,238.6,369.3,239.3,370.9z"/>
				<line class="st4" x1="238.4" y1="369" x2="329.9" y2="315.9"/>
				<line class="st4" x1="237.2" y1="366.3" x2="328.7" y2="313.2"/>
			</g>
			<path class="st9" d="M239.3,370.9c-0.7-1.6-1.9-4.2-3.6-7.9l91.4-53.1c1.7,3.7,2.9,6.3,3.6,7.9L239.3,370.9z"/>
		</g>
		<g class="st0">
			<defs>
				<path id="SVGID_11_" class="st0" d="M137.1,167.5l91.4-53.1c1.6-0.9,3.3-1.8,5-2.5c10.8-4.7,23.1-6.2,36.9-4.6
					c13.8,1.6,27.8,6.5,41.9,14.6c18.8,10.8,33.4,26,43.9,45.3l-91.4,53.1c-10.5-19.4-25.1-34.5-43.9-45.3
					c-14.2-8.2-28.2-13.1-41.9-14.6c-13.8-1.6-26.1,0-36.9,4.6C140.4,165.7,138.7,166.6,137.1,167.5z"/>
			</defs>
			<clipPath id="SVGID_12_">
				<use xlink:href="#SVGID_11_"  style="overflow:visible;"/>
			</clipPath>
			<g class="st10">
				<g>
					<path class="st4" d="M115.9,190.3l91.4-53.1c6.7-12.2,15.4-20.7,26.2-25.4L142.1,165C131.3,169.6,122.6,178.1,115.9,190.3z"/>
				</g>
				<g>
					<path class="st4" d="M142.1,165l91.4-53.1c10.8-4.7,23.1-6.2,36.9-4.6L179,160.3C165.2,158.7,152.9,160.3,142.1,165z"/>
					<line class="st4" x1="153.4" y1="161.3" x2="244.8" y2="108.2"/>
					<line class="st4" x1="165.7" y1="159.8" x2="257.1" y2="106.6"/>
				</g>
				<g>
					<path class="st4" d="M179,160.3l91.4-53.1c13.8,1.6,27.8,6.5,41.9,14.6L220.9,175C206.8,166.8,192.8,161.9,179,160.3z"/>
					<line class="st4" x1="192.8" y1="163" x2="284.3" y2="109.9"/>
					<line class="st4" x1="206.8" y1="167.9" x2="298.3" y2="114.7"/>
				</g>
				<g>
					<path class="st4" d="M220.9,175l91.4-53.1c18.8,10.8,33.4,26,43.9,45.3l-91.4,53.1C254.3,200.9,239.7,185.8,220.9,175z"/>
					<line class="st4" x1="238.3" y1="187.2" x2="329.8" y2="134.1"/>
					<line class="st4" x1="253" y1="202.3" x2="344.4" y2="149.2"/>
				</g>
			</g>
			<path class="st11" d="M137.1,167.5l91.4-53.1c1.6-0.9,3.3-1.8,5-2.5c10.8-4.7,23.1-6.2,36.9-4.6c13.8,1.6,27.8,6.5,41.9,14.6
				c18.8,10.8,33.4,26,43.9,45.3l-91.4,53.1c-10.5-19.4-25.1-34.5-43.9-45.3c-14.2-8.2-28.2-13.1-41.9-14.6
				c-13.8-1.6-26.1,0-36.9,4.6C140.4,165.7,138.7,166.6,137.1,167.5z"/>
		</g>
		<g class="st0">
			<defs>
				<path id="SVGID_13_" class="st0" d="M228.5,114.4c-8.5,4.9-15.6,12.5-21.2,22.8c-6.7,12.2-10.1,27.2-10.2,45.1
					c-0.1,23.6,6.3,46,19.2,67.4c12.8,21.4,30.8,38.7,53.9,52c20.1,11.6,39.1,14.3,56.9,8.1L235.7,363c-17.9,6.2-36.8,3.5-56.9-8.1
					c-23.1-13.3-41.1-30.7-53.9-52c-12.8-21.3-19.2-43.8-19.2-67.4c0.1-17.9,3.5-32.9,10.2-45.1c5.6-10.3,12.7-17.9,21.2-22.8
					C164.5,151.6,201.1,130.3,228.5,114.4z"/>
			</defs>
			<clipPath id="SVGID_14_">
				<use xlink:href="#SVGID_13_"  style="overflow:visible;"/>
			</clipPath>
			<g class="st12">
				<g>
					<path class="st4" d="M235.7,363l91.4-53.1c-17.9,6.2-36.8,3.5-56.9-8.1l-91.4,53.1C198.9,366.5,217.9,369.2,235.7,363z"/>
					<line class="st4" x1="217.5" y1="366.2" x2="308.9" y2="313.1"/>
					<line class="st4" x1="198.5" y1="363.5" x2="290" y2="310.4"/>
				</g>
				<g>
					<path class="st4" d="M178.8,354.9l91.4-53.1c-23.1-13.3-41.1-30.7-53.9-52l-91.4,53.1C137.7,324.2,155.7,341.5,178.8,354.9z"/>
					<line class="st4" x1="157.4" y1="340.2" x2="248.8" y2="287.1"/>
					<line class="st4" x1="139.4" y1="322.8" x2="230.8" y2="269.7"/>
				</g>
				<g>
					<path class="st4" d="M124.9,302.8l91.4-53.1c-12.8-21.3-19.2-43.8-19.2-67.4l-91.4,53.1C105.6,259,112,281.5,124.9,302.8z"/>
					<line class="st4" x1="114.2" y1="281.1" x2="205.6" y2="228"/>
					<line class="st4" x1="107.8" y1="258.6" x2="199.2" y2="205.5"/>
				</g>
				<g>
					<path class="st4" d="M105.7,235.5l91.4-53.1c0.1-17.9,3.5-32.9,10.2-45.1l-91.4,53.1C109.2,202.5,105.8,217.6,105.7,235.5z"/>
					<line class="st4" x1="106.9" y1="218.5" x2="198.3" y2="165.4"/>
					<line class="st4" x1="110.3" y1="203.5" x2="201.7" y2="150.3"/>
				</g>
				<g>
					<path class="st4" d="M115.9,190.3l91.4-53.1c6.7-12.2,15.4-20.7,26.2-25.4L142.1,165C131.3,169.6,122.6,178.1,115.9,190.3z"/>
					<line class="st4" x1="123.3" y1="179.3" x2="214.7" y2="126.2"/>
					<line class="st4" x1="132" y1="170.9" x2="223.4" y2="117.8"/>
				</g>
			</g>
			<path class="st13" d="M228.5,114.4c-8.5,4.9-15.6,12.5-21.2,22.8c-6.7,12.2-10.1,27.2-10.2,45.1c-0.1,23.6,6.3,46,19.2,67.4
				c12.8,21.4,30.8,38.7,53.9,52c20.1,11.6,39.1,14.3,56.9,8.1L235.7,363c-17.9,6.2-36.8,3.5-56.9-8.1c-23.1-13.3-41.1-30.7-53.9-52
				c-12.8-21.3-19.2-43.8-19.2-67.4c0.1-17.9,3.5-32.9,10.2-45.1c5.6-10.3,12.7-17.9,21.2-22.8C164.5,151.6,201.1,130.3,228.5,114.4
				z"/>
		</g>
		<g class="st0">
			<defs>
				<polygon id="SVGID_15_" class="st0" points="264.8,220.3 270.7,207.4 362.1,154.3 356.3,167.1 				"/>
			</defs>
			<clipPath id="SVGID_16_">
				<use xlink:href="#SVGID_15_"  style="overflow:visible;"/>
			</clipPath>
			<polygon class="st14" points="264.8,220.3 270.7,207.4 362.1,154.3 356.3,167.1 			"/>
		</g>
		<g class="st0">
			<defs>
				<polygon id="SVGID_17_" class="st0" points="270.7,207.4 362.1,154.3 399.7,176 308.3,229.1 				"/>
			</defs>
			<clipPath id="SVGID_18_">
				<use xlink:href="#SVGID_17_"  style="overflow:visible;"/>
			</clipPath>
			<polygon class="st15" points="270.7,207.4 362.1,154.3 399.7,176 308.3,229.1 			"/>
		</g>
		<g class="st0">
			<defs>
				<path id="SVGID_19_" class="st0" d="M306.9,379.3c4.6-2.7,8.9-6.5,12.8-11.4c4.3-5.2,7.9-13.2,10.8-23.9
					c2.9-10.7,4.4-23.3,4.5-37.8c0.1-32.1-9-63.2-27.2-93.2c-18.2-30.1-43.4-54.4-75.6-73c-16.5-9.5-32.8-15.9-48.8-19
					c-16-3.1-30.6-2.9-43.7,0.5c-7.8,2.1-15.1,5-21.8,9l91.4-53.1c6.7-3.9,14-6.9,21.8-9c13.1-3.5,27.7-3.7,43.7-0.5
					c16,3.2,32.3,9.5,48.8,19c32.2,18.6,57.4,42.9,75.6,73c18.2,30.1,27.3,61.1,27.2,93.2c0,14.5-1.5,27.1-4.5,37.8
					c-2.9,10.7-6.5,18.7-10.8,23.9c-4,5-8.2,8.7-12.8,11.4C370.9,342.1,334.3,363.3,306.9,379.3z"/>
			</defs>
			<clipPath id="SVGID_20_">
				<use xlink:href="#SVGID_19_"  style="overflow:visible;"/>
			</clipPath>
			<g class="st16">
				<g>
					<path class="st4" d="M305.9,379.9l91.4-53.1c5-2.7,9.6-6.7,13.8-12l-91.4,53.1C315.5,373.2,310.8,377.2,305.9,379.9z"/>
					<line class="st4" x1="310.7" y1="376.7" x2="402.2" y2="323.6"/>
					<line class="st4" x1="315.3" y1="372.7" x2="406.8" y2="319.6"/>
				</g>
				<g>
					<path class="st4" d="M319.7,367.9l91.4-53.1c4.3-5.2,7.9-13.2,10.8-23.9l-91.4,53.1C327.6,354.6,324,362.6,319.7,367.9z"/>
					<line class="st4" x1="323.8" y1="361.7" x2="415.2" y2="308.6"/>
					<line class="st4" x1="327.4" y1="353.7" x2="418.8" y2="300.6"/>
				</g>
				<g>
					<path class="st4" d="M330.5,343.9l91.4-53.1c2.9-10.7,4.4-23.3,4.5-37.8L335,306.1C334.9,320.6,333.4,333.2,330.5,343.9z"/>
					<line class="st4" x1="333" y1="332.6" x2="424.4" y2="279.5"/>
					<line class="st4" x1="334.5" y1="320" x2="425.9" y2="266.9"/>
				</g>
				<g>
					<path class="st4" d="M335,306.1l91.4-53.1c0.1-32.1-9-63.2-27.2-93.2l-91.4,53.1C326,243,335.1,274.1,335,306.1z"/>
					<line class="st4" x1="332" y1="274.4" x2="423.4" y2="221.3"/>
					<line class="st4" x1="322.9" y1="243.3" x2="414.4" y2="190.2"/>
				</g>
				<g>
					<path class="st4" d="M307.8,212.9l91.4-53.1c-18.2-30.1-43.4-54.4-75.6-73l-91.4,53.1C264.3,158.5,289.6,182.8,307.8,212.9z"/>
					<line class="st4" x1="287.2" y1="184.8" x2="378.7" y2="131.6"/>
					<line class="st4" x1="262" y1="160.4" x2="353.5" y2="107.3"/>
				</g>
				<g>
					<path class="st4" d="M232.2,139.9l91.4-53.1c-16.5-9.5-32.8-15.9-48.8-19l-91.4,53.1C199.4,124,215.6,130.4,232.2,139.9z"/>
					<line class="st4" x1="215.7" y1="131.4" x2="307.2" y2="78.3"/>
					<line class="st4" x1="199.5" y1="125.1" x2="290.9" y2="72"/>
				</g>
				<g>
					<path class="st4" d="M183.3,120.9l91.4-53.1c-16-3.1-30.6-2.9-43.7,0.5l-91.4,53.1C152.7,117.9,167.3,117.8,183.3,120.9z"/>
					<line class="st4" x1="167.8" y1="118.9" x2="259.2" y2="65.7"/>
					<line class="st4" x1="153.2" y1="119" x2="244.7" y2="65.9"/>
				</g>
				<g>
					<path class="st4" d="M139.6,121.4l91.4-53.1c-13.1,3.5-24.7,9.5-34.7,18.2l-91.4,53.1C115,130.9,126.5,124.9,139.6,121.4z"/>
					<line class="st4" x1="127" y1="125.8" x2="218.5" y2="72.6"/>
				</g>
			</g>
			<path class="st17" d="M306.9,379.3c4.6-2.7,8.9-6.5,12.8-11.4c4.3-5.2,7.9-13.2,10.8-23.9c2.9-10.7,4.4-23.3,4.5-37.8
				c0.1-32.1-9-63.2-27.2-93.2c-18.2-30.1-43.4-54.4-75.6-73c-16.5-9.5-32.8-15.9-48.8-19c-16-3.1-30.6-2.9-43.7,0.5
				c-7.8,2.1-15.1,5-21.8,9l91.4-53.1c6.7-3.9,14-6.9,21.8-9c13.1-3.5,27.7-3.7,43.7-0.5c16,3.2,32.3,9.5,48.8,19
				c32.2,18.6,57.4,42.9,75.6,73c18.2,30.1,27.3,61.1,27.2,93.2c0,14.5-1.5,27.1-4.5,37.8c-2.9,10.7-6.5,18.7-10.8,23.9
				c-4,5-8.2,8.7-12.8,11.4C370.9,342.1,334.3,363.3,306.9,379.3z"/>
		</g>
		<g class="st0">
			<defs>
				<path id="SVGID_21_" class="st0" d="M398.3,326.2l-91.4,53.1c-0.3,0.2-0.7,0.4-1,0.6c-5,2.7-9.5,4-13.5,4c-4,0-7.3-0.7-9.8-2.2
					c-5.5-3.2-8.1-8.5-8.1-16.1c0-1.6,0.1-3.1,0.3-4.7c0.2-1.5,0.6-3.7,1.3-6.6c0.7-2.9,1.5-6.1,2.4-9.5c0.9-3.5,2.3-8.8,4.2-15.9
					c1.9-7.1,3.9-14.7,6-22.9c2.1-8.2,5-19.2,8.6-33c3.6-13.9,7.3-28.5,11-44l91.4-53.1c-3.8,15.5-7.5,30.1-11,44
					c-3.6,13.8-6.4,24.8-8.6,33c-2.1,8.2-4.2,15.8-6,22.9c-1.9,7.1-3.3,12.4-4.2,15.9c-0.9,3.4-1.7,6.6-2.4,9.5s-1.1,5.1-1.3,6.6
					c-0.2,1.5-0.3,3.1-0.3,4.7c0,7.6,2.7,13,8.1,16.1c2.5,1.5,5.8,2.2,9.8,2.2c4,0,8.5-1.3,13.5-4
					C397.6,326.5,398,326.3,398.3,326.2z"/>
			</defs>
			<clipPath id="SVGID_22_">
				<use xlink:href="#SVGID_21_"  style="overflow:visible;"/>
			</clipPath>
			<g class="st18">
				<g>
					<path class="st4" d="M308.3,229.1l91.4-53.1c-3.8,15.5-7.5,30.1-11,44l-91.4,53.1C300.8,259.2,304.5,244.6,308.3,229.1z"/>
					<line class="st4" x1="304.5" y1="244.3" x2="396" y2="191.1"/>
					<line class="st4" x1="300.8" y1="258.9" x2="392.3" y2="205.8"/>
				</g>
				<g>
					<path class="st4" d="M297.2,273.1l91.4-53.1c-3.6,13.8-6.4,24.8-8.6,33l-91.4,53.1C290.8,297.9,293.7,286.9,297.2,273.1z"/>
					<line class="st4" x1="293.9" y1="285.9" x2="385.3" y2="232.8"/>
					<line class="st4" x1="291.1" y1="297" x2="382.5" y2="243.8"/>
				</g>
				<g>
					<path class="st4" d="M288.7,306.1l91.4-53.1c-2.1,8.2-4.2,15.8-6,22.9l-91.4,53.1C284.5,321.8,286.5,314.2,288.7,306.1z"/>
					<line class="st4" x1="286.6" y1="314" x2="378" y2="260.9"/>
					<line class="st4" x1="284.6" y1="321.7" x2="376" y2="268.5"/>
				</g>
				<g>
					<path class="st4" d="M282.6,328.9l91.4-53.1c-1.9,7.1-3.3,12.4-4.2,15.9l-91.4,53.1C279.3,341.3,280.7,336,282.6,328.9z"/>
					<line class="st4" x1="280.9" y1="335.4" x2="372.3" y2="282.3"/>
					<line class="st4" x1="279.5" y1="340.7" x2="370.9" y2="287.6"/>
				</g>
				<g>
					<path class="st4" d="M278.4,344.8l91.4-53.1c-0.9,3.4-1.7,6.6-2.4,9.5L276,354.3C276.7,351.4,277.5,348.2,278.4,344.8z"/>
					<line class="st4" x1="277.5" y1="348.1" x2="369" y2="295"/>
					<line class="st4" x1="276.7" y1="351.3" x2="368.2" y2="298.2"/>
				</g>
				<g>
					<path class="st4" d="M276,354.3l91.4-53.1c-0.7,2.9-1.1,5.1-1.3,6.6l-91.4,53.1C274.9,359.3,275.3,357.2,276,354.3z"/>
					<line class="st4" x1="275.4" y1="356.9" x2="366.9" y2="303.8"/>
					<line class="st4" x1="275" y1="359.1" x2="366.4" y2="306"/>
				</g>
				<g>
					<path class="st4" d="M274.7,360.9l91.4-53.1c-0.2,1.5-0.3,3.1-0.3,4.7l-91.4,53.1C274.5,364,274.5,362.4,274.7,360.9z"/>
					<line class="st4" x1="274.6" y1="362.4" x2="366" y2="309.3"/>
					<line class="st4" x1="274.5" y1="364" x2="365.9" y2="310.8"/>
				</g>
				<g>
					<path class="st4" d="M274.5,365.5l91.4-53.1c0,7.6,2.7,13,8.1,16.1l-91.4,53.1C277.1,378.5,274.4,373.1,274.5,365.5z"/>
					<line class="st4" x1="275.3" y1="372.4" x2="366.8" y2="319.3"/>
					<line class="st4" x1="278" y1="377.8" x2="369.5" y2="324.6"/>
				</g>
				<g>
					<path class="st4" d="M282.6,381.7l91.4-53.1c2.5,1.5,5.8,2.2,9.8,2.2l-91.4,53.1C288.4,383.9,285.1,383.1,282.6,381.7z"/>
					<line class="st4" x1="285.4" y1="382.9" x2="376.8" y2="329.7"/>
					<line class="st4" x1="288.6" y1="383.6" x2="380.1" y2="330.5"/>
				</g>
				<g>
					<path class="st4" d="M292.4,383.9l91.4-53.1c4,0,8.5-1.3,13.5-4l-91.4,53.1C300.9,382.5,296.4,383.9,292.4,383.9z"/>
					<line class="st4" x1="296.6" y1="383.4" x2="388" y2="330.3"/>
					<line class="st4" x1="301" y1="382.1" x2="392.5" y2="329"/>
				</g>
				<g>
					<path class="st4" d="M305.9,379.9l91.4-53.1c5-2.7,9.6-6.7,13.8-12l-91.4,53.1C315.5,373.2,310.8,377.2,305.9,379.9z"/>
				</g>
			</g>
			<path class="st19" d="M398.3,326.2l-91.4,53.1c-0.3,0.2-0.7,0.4-1,0.6c-5,2.7-9.5,4-13.5,4c-4,0-7.3-0.7-9.8-2.2
				c-5.5-3.2-8.1-8.5-8.1-16.1c0-1.6,0.1-3.1,0.3-4.7c0.2-1.5,0.6-3.7,1.3-6.6c0.7-2.9,1.5-6.1,2.4-9.5c0.9-3.5,2.3-8.8,4.2-15.9
				c1.9-7.1,3.9-14.7,6-22.9c2.1-8.2,5-19.2,8.6-33c3.6-13.9,7.3-28.5,11-44l91.4-53.1c-3.8,15.5-7.5,30.1-11,44
				c-3.6,13.8-6.4,24.8-8.6,33c-2.1,8.2-4.2,15.8-6,22.9c-1.9,7.1-3.3,12.4-4.2,15.9c-0.9,3.4-1.7,6.6-2.4,9.5s-1.1,5.1-1.3,6.6
				c-0.2,1.5-0.3,3.1-0.3,4.7c0,7.6,2.7,13,8.1,16.1c2.5,1.5,5.8,2.2,9.8,2.2c4,0,8.5-1.3,13.5-4C397.6,326.5,398,326.3,398.3,326.2
				z"/>
		</g>
		<g class="st0">
			<defs>
				<path id="SVGID_23_" class="st0" d="M117.8,130.4l91.4-53.1c-4.5,2.6-8.8,5.7-12.9,9.2c-10,8.7-17.9,20.1-23.5,34.5
					c-5.6,14.4-8.4,30.6-8.4,48.7c0,16,2.8,32.7,8.6,50.1c5.8,17.5,13.9,34.3,24.3,50.5c10.4,16.2,23.3,31.7,38.5,46.4
					c15.3,14.7,31.9,27.3,49.8,37.6c20,11.5,38.9,19.5,56.7,23.8c17.8,4.3,38.4,6.3,61.7,6l-91.4,53.1c-23.3,0.3-43.8-1.7-61.7-6
					c-17.8-4.3-36.7-12.3-56.7-23.8c-17.9-10.3-34.5-22.9-49.8-37.6c-15.3-14.7-28.1-30.2-38.5-46.4c-10.4-16.2-18.5-33.1-24.3-50.5
					c-5.8-17.4-8.7-34.1-8.6-50.1c0.1-18,2.8-34.3,8.4-48.7c5.6-14.4,13.4-25.9,23.5-34.5C109,136.1,113.3,133,117.8,130.4z"/>
			</defs>
			<clipPath id="SVGID_24_">
				<use xlink:href="#SVGID_23_"  style="overflow:visible;"/>
			</clipPath>
			<g class="st20">
				<g>
					<path class="st4" d="M139.6,121.4l91.4-53.1c-13.1,3.5-24.7,9.5-34.7,18.2l-91.4,53.1C115,130.9,126.5,124.9,139.6,121.4z"/>
					<line class="st4" x1="115.5" y1="131.8" x2="206.9" y2="78.7"/>
				</g>
				<g>
					<path class="st4" d="M104.9,139.6l91.4-53.1c-10,8.7-17.9,20.1-23.5,34.5l-91.4,53.1C87.1,159.7,94.9,148.2,104.9,139.6z"/>
					<line class="st4" x1="95.6" y1="149.2" x2="187.1" y2="96"/>
					<line class="st4" x1="87.8" y1="160.7" x2="179.3" y2="107.5"/>
				</g>
				<g>
					<path class="st4" d="M81.5,174.1l91.4-53.1c-5.6,14.4-8.4,30.6-8.4,48.7L73,222.8C73.1,204.7,75.9,188.4,81.5,174.1z"/>
					<line class="st4" x1="76.8" y1="189.1" x2="168.3" y2="135.9"/>
					<line class="st4" x1="74" y1="205.3" x2="165.4" y2="152.2"/>
				</g>
				<g>
					<path class="st4" d="M73,222.8l91.4-53.1c0,16,2.8,32.7,8.6,50.1l-91.4,53.1C75.9,255.5,73,238.7,73,222.8z"/>
					<line class="st4" x1="74" y1="239" x2="165.4" y2="185.8"/>
					<line class="st4" x1="76.8" y1="255.7" x2="168.3" y2="202.5"/>
				</g>
				<g>
					<path class="st4" d="M81.7,272.9l91.4-53.1c5.8,17.5,13.9,34.3,24.3,50.5L106,323.4C95.5,307.1,87.5,290.3,81.7,272.9z"/>
					<line class="st4" x1="88.2" y1="290.1" x2="179.7" y2="237"/>
					<line class="st4" x1="96.3" y1="306.9" x2="187.8" y2="253.8"/>
				</g>
				<g>
					<path class="st4" d="M106,323.4l91.4-53.1c10.4,16.2,23.3,31.7,38.5,46.4l-91.4,53.1C129.3,355.1,116.4,339.6,106,323.4z"/>
					<line class="st4" x1="117.2" y1="339.3" x2="208.7" y2="286.2"/>
					<line class="st4" x1="130.1" y1="354.8" x2="221.5" y2="301.7"/>
				</g>
				<g>
					<path class="st4" d="M144.5,369.8l91.4-53.1c15.3,14.7,31.9,27.3,49.8,37.6l-91.4,53.1C176.4,397,159.8,384.5,144.5,369.8z"/>
					<line class="st4" x1="160.2" y1="383.8" x2="251.7" y2="330.6"/>
					<line class="st4" x1="176.8" y1="396.3" x2="268.2" y2="343.2"/>
				</g>
				<g>
					<path class="st4" d="M194.3,407.4l91.4-53.1c20,11.5,38.9,19.5,56.7,23.8L251,431.2C233.2,426.9,214.3,418.9,194.3,407.4z"/>
					<line class="st4" x1="213.9" y1="417.7" x2="305.3" y2="364.6"/>
					<line class="st4" x1="232.8" y1="425.7" x2="324.2" y2="372.5"/>
				</g>
				<g>
					<path class="st4" d="M251,431.2l91.4-53.1c17.8,4.3,38.4,6.3,61.7,6l-91.4,53.1C289.3,437.5,268.8,435.5,251,431.2z"/>
					<line class="st4" x1="269.7" y1="434.7" x2="361.1" y2="381.6"/>
					<line class="st4" x1="290.2" y1="436.7" x2="381.7" y2="383.6"/>
				</g>
			</g>
			<path class="st21" d="M117.8,130.4l91.4-53.1c-4.5,2.6-8.8,5.7-12.9,9.2c-10,8.7-17.9,20.1-23.5,34.5
				c-5.6,14.4-8.4,30.6-8.4,48.7c0,16,2.8,32.7,8.6,50.1c5.8,17.5,13.9,34.3,24.3,50.5c10.4,16.2,23.3,31.7,38.5,46.4
				c15.3,14.7,31.9,27.3,49.8,37.6c20,11.5,38.9,19.5,56.7,23.8c17.8,4.3,38.4,6.3,61.7,6l-91.4,53.1c-23.3,0.3-43.8-1.7-61.7-6
				c-17.8-4.3-36.7-12.3-56.7-23.8c-17.9-10.3-34.5-22.9-49.8-37.6c-15.3-14.7-28.1-30.2-38.5-46.4c-10.4-16.2-18.5-33.1-24.3-50.5
				c-5.8-17.4-8.7-34.1-8.6-50.1c0.1-18,2.8-34.3,8.4-48.7c5.6-14.4,13.4-25.9,23.5-34.5C109,136.1,113.3,133,117.8,130.4z"/>
		</g>
		<g class="st0">
			<defs>
				<polygon id="SVGID_25_" class="st0" points="312.6,437.2 404.1,384.1 420.7,417.3 329.2,470.4 				"/>
			</defs>
			<clipPath id="SVGID_26_">
				<use xlink:href="#SVGID_25_"  style="overflow:visible;"/>
			</clipPath>
			<polygon class="st22" points="312.6,437.2 404.1,384.1 420.7,417.3 329.2,470.4 			"/>
		</g>
		<g class="st0">
			<defs>
				<path id="SVGID_27_" class="st0" d="M84.2,95.2l91.4-53.1c5.5-3.2,11.5-5.9,17.8-8c13-4.3,27-5.9,42-4.8
					c15,1.1,30.4,4.2,46.4,9.5c16,5.3,31.9,12.5,47.8,21.6c18.9,10.9,36.5,24.3,52.9,40.1c16.4,15.9,30.6,33.1,42.5,51.6
					c11.9,18.6,21.3,38.4,28.2,59.7L361.8,265c-6.9-21.2-16.3-41.1-28.2-59.7c-11.9-18.5-26.1-35.7-42.5-51.6
					c-16.4-15.8-34-29.2-52.9-40.1c-15.9-9.2-31.9-16.4-47.8-21.6c-16-5.2-31.5-8.4-46.4-9.5c-15-1.1-29,0.5-42,4.8
					C95.7,89.4,89.7,92,84.2,95.2z"/>
			</defs>
			<clipPath id="SVGID_28_">
				<use xlink:href="#SVGID_27_"  style="overflow:visible;"/>
			</clipPath>
			<g class="st23">
				<g>
					<path class="st4" d="M68,107.3l91.4-53.1c9.7-9,21-15.7,34-20L102,87.3C89,91.5,77.7,98.2,68,107.3z"/>
					<line class="st4" x1="89.6" y1="92.4" x2="181" y2="39.2"/>
				</g>
				<g>
					<path class="st4" d="M102,87.3l91.4-53.1c13-4.3,27-5.9,42-4.8L144,82.5C129,81.4,115,83,102,87.3z"/>
					<line class="st4" x1="115.3" y1="83.9" x2="206.8" y2="30.8"/>
					<line class="st4" x1="129.3" y1="82.3" x2="220.8" y2="29.2"/>
				</g>
				<g>
					<path class="st4" d="M144,82.5l91.4-53.1c15,1.1,30.4,4.2,46.4,9.5L190.4,92C174.4,86.7,158.9,83.6,144,82.5z"/>
					<line class="st4" x1="159.1" y1="84.3" x2="250.5" y2="31.1"/>
					<line class="st4" x1="174.6" y1="87.4" x2="266" y2="34.3"/>
				</g>
				<g>
					<path class="st4" d="M190.4,92l91.4-53.1c16,5.3,31.9,12.5,47.8,21.6l-91.4,53.1C222.3,104.4,206.4,97.2,190.4,92z"/>
					<line class="st4" x1="206.4" y1="97.9" x2="297.8" y2="44.7"/>
					<line class="st4" x1="222.3" y1="105.1" x2="313.7" y2="52"/>
				</g>
				<g>
					<path class="st4" d="M238.2,113.6l91.4-53.1c18.9,10.9,36.5,24.3,52.9,40.1l-91.4,53.1C274.7,137.9,257.1,124.5,238.2,113.6z"
						/>
					<line class="st4" x1="256.7" y1="125.3" x2="348.1" y2="72.2"/>
					<line class="st4" x1="274.3" y1="138.7" x2="365.7" y2="85.6"/>
				</g>
				<g>
					<path class="st4" d="M291.1,153.7l91.4-53.1c16.4,15.9,30.6,33.1,42.5,51.6l-91.4,53.1C321.7,186.8,307.5,169.6,291.1,153.7z"
						/>
					<line class="st4" x1="306.8" y1="170.1" x2="398.2" y2="116.9"/>
					<line class="st4" x1="320.9" y1="187.3" x2="412.4" y2="134.1"/>
				</g>
				<g>
					<path class="st4" d="M333.6,205.4l91.4-53.1c11.9,18.6,21.3,38.4,28.2,59.7L361.8,265C354.9,243.8,345.5,223.9,333.6,205.4z"/>
					<line class="st4" x1="344.7" y1="224.4" x2="436.1" y2="171.2"/>
					<line class="st4" x1="354.1" y1="244.2" x2="445.5" y2="191.1"/>
				</g>
			</g>
			<path class="st24" d="M84.2,95.2l91.4-53.1c5.5-3.2,11.5-5.9,17.8-8c13-4.3,27-5.9,42-4.8c15,1.1,30.4,4.2,46.4,9.5
				c16,5.3,31.9,12.5,47.8,21.6c18.9,10.9,36.5,24.3,52.9,40.1c16.4,15.9,30.6,33.1,42.5,51.6c11.9,18.6,21.3,38.4,28.2,59.7
				L361.8,265c-6.9-21.2-16.3-41.1-28.2-59.7c-11.9-18.5-26.1-35.7-42.5-51.6c-16.4-15.8-34-29.2-52.9-40.1
				c-15.9-9.2-31.9-16.4-47.8-21.6c-16-5.2-31.5-8.4-46.4-9.5c-15-1.1-29,0.5-42,4.8C95.7,89.4,89.7,92,84.2,95.2z"/>
		</g>
		<g class="st0">
			<defs>
				<path id="SVGID_29_" class="st0" d="M175.6,42.1c-5.8,3.4-11.2,7.4-16.2,12c-9.7,9.1-17.3,21.7-22.9,37.7
					c-5.6,16-8.4,34.8-8.5,56.4c0,16.1,2.1,32.7,6.5,49.8c4.4,17.1,10.9,34.2,19.7,51.4c8.7,17.2,19.4,33.8,31.8,49.8
					c12.4,16,27.2,31.4,44.2,46.1c17,14.8,35.6,27.9,55.5,39.4c14.3,8.2,28.4,14.9,42.3,20c13.8,5.1,26.8,8.5,38.8,10.1
					c12,1.6,21.8,2.6,29.4,2.8c7.6,0.3,15.8,0.1,24.6-0.4l-91.4,53.1c-8.8,0.5-16.9,0.7-24.6,0.4c-7.6-0.3-17.5-1.2-29.4-2.8
					c-12-1.6-25-5-38.8-10.1c-13.9-5.1-28-11.8-42.3-20c-20-11.5-38.5-24.7-55.5-39.4c-17-14.8-31.7-30.1-44.2-46.1
					c-12.4-16-23.1-32.6-31.8-49.8C54,285.3,47.4,268.2,43,251.1c-4.3-17.1-6.5-33.7-6.5-49.8c0.1-21.6,2.9-40.4,8.5-56.4
					c5.6-16,13.2-28.6,22.9-37.7c5-4.6,10.4-8.7,16.2-12C111.6,79.3,148.2,58,175.6,42.1z"/>
			</defs>
			<clipPath id="SVGID_30_">
				<use xlink:href="#SVGID_29_"  style="overflow:visible;"/>
			</clipPath>
			<g class="st25">
				<g>
					<path class="st4" d="M329.2,470.4l91.4-53.1c-8.8,0.5-16.9,0.7-24.6,0.4l-91.4,53.1C312.3,471.1,320.5,471,329.2,470.4z"/>
					<line class="st4" x1="320.7" y1="470.8" x2="412.1" y2="417.7"/>
					<line class="st4" x1="312.5" y1="471" x2="403.9" y2="417.8"/>
				</g>
				<g>
					<path class="st4" d="M304.7,470.8l91.4-53.1c-7.6-0.3-17.5-1.2-29.4-2.8L275.2,468C287.2,469.6,297.1,470.6,304.7,470.8z"/>
					<line class="st4" x1="296.3" y1="470.3" x2="387.8" y2="417.2"/>
					<line class="st4" x1="286.5" y1="469.4" x2="377.9" y2="416.3"/>
				</g>
				<g>
					<path class="st4" d="M275.2,468l91.4-53.1c-12-1.6-25-5-38.8-10.1l-91.4,53.1C250.3,463,263.3,466.4,275.2,468z"/>
					<line class="st4" x1="262.9" y1="465.8" x2="354.4" y2="412.6"/>
					<line class="st4" x1="250" y1="462.4" x2="341.4" y2="409.3"/>
				</g>
				<g>
					<path class="st4" d="M236.4,457.9l91.4-53.1c-13.9-5.1-28-11.8-42.3-20l-91.4,53.1C208.5,446.1,222.6,452.8,236.4,457.9z"/>
					<line class="st4" x1="222.5" y1="452.3" x2="313.9" y2="399.1"/>
					<line class="st4" x1="208.4" y1="445.6" x2="299.8" y2="392.5"/>
				</g>
				<g>
					<path class="st4" d="M194.2,437.9l91.4-53.1c-20-11.5-38.5-24.7-55.5-39.4l-91.4,53.1C155.7,413.2,174.2,426.4,194.2,437.9z"/>
					<line class="st4" x1="174.7" y1="425.8" x2="266.1" y2="372.7"/>
					<line class="st4" x1="156.2" y1="412.7" x2="247.6" y2="359.5"/>
				</g>
				<g>
					<path class="st4" d="M138.7,398.4l91.4-53.1c-17-14.8-31.7-30.1-44.2-46.1l-91.4,53.1C106.9,368.3,121.7,383.7,138.7,398.4z"/>
					<line class="st4" x1="122.4" y1="383.5" x2="213.9" y2="330.3"/>
					<line class="st4" x1="107.7" y1="368.1" x2="199.1" y2="315"/>
				</g>
				<g>
					<path class="st4" d="M94.5,352.3l91.4-53.1c-12.4-16-23.1-32.6-31.8-49.8l-91.4,53.1C71.4,319.7,82.1,336.3,94.5,352.3z"/>
					<line class="st4" x1="82.7" y1="336.1" x2="174.1" y2="283"/>
					<line class="st4" x1="72.1" y1="319.5" x2="163.5" y2="266.4"/>
				</g>
				<g>
					<path class="st4" d="M62.7,302.5l91.4-53.1c-8.7-17.2-15.3-34.3-19.7-51.4L43,251.1C47.4,268.2,54,285.3,62.7,302.5z"/>
					<line class="st4" x1="54.7" y1="285.3" x2="146.1" y2="232.2"/>
					<line class="st4" x1="48.1" y1="268.2" x2="139.6" y2="215.1"/>
				</g>
				<g>
					<path class="st4" d="M43,251.1l91.4-53.1c-4.3-17.1-6.5-33.7-6.5-49.8l-91.4,53.1C36.5,217.4,38.7,234,43,251.1z"/>
					<line class="st4" x1="39.4" y1="234.2" x2="130.8" y2="181.1"/>
					<line class="st4" x1="37.3" y1="217.6" x2="128.7" y2="164.5"/>
				</g>
				<g>
					<path class="st4" d="M36.6,201.4l91.4-53.1c0.1-21.6,2.9-40.4,8.5-56.4L45.1,145C39.5,161,36.6,179.8,36.6,201.4z"/>
					<line class="st4" x1="37.5" y1="180.7" x2="129" y2="127.6"/>
					<line class="st4" x1="40.4" y1="161.9" x2="131.8" y2="108.8"/>
				</g>
				<g>
					<path class="st4" d="M45.1,145l91.4-53.1c5.6-16,13.2-28.6,22.9-37.7L68,107.3C58.3,116.4,50.7,128.9,45.1,145z"/>
					<line class="st4" x1="51.3" y1="130.1" x2="142.8" y2="77"/>
					<line class="st4" x1="59" y1="117.5" x2="150.4" y2="64.4"/>
				</g>
				<g>
					<path class="st4" d="M68,107.3l91.4-53.1c9.7-9,21-15.7,34-20L102,87.3C89,91.5,77.7,98.2,68,107.3z"/>
					<line class="st4" x1="78.2" y1="99" x2="169.7" y2="45.9"/>
				</g>
			</g>
			<path class="st26" d="M175.6,42.1c-5.8,3.4-11.2,7.4-16.2,12c-9.7,9.1-17.3,21.7-22.9,37.7c-5.6,16-8.4,34.8-8.5,56.4
				c0,16.1,2.1,32.7,6.5,49.8c4.4,17.1,10.9,34.2,19.7,51.4c8.7,17.2,19.4,33.8,31.8,49.8c12.4,16,27.2,31.4,44.2,46.1
				c17,14.8,35.6,27.9,55.5,39.4c14.3,8.2,28.4,14.9,42.3,20c13.8,5.1,26.8,8.5,38.8,10.1c12,1.6,21.8,2.6,29.4,2.8
				c7.6,0.3,15.8,0.1,24.6-0.4l-91.4,53.1c-8.8,0.5-16.9,0.7-24.6,0.4c-7.6-0.3-17.5-1.2-29.4-2.8c-12-1.6-25-5-38.8-10.1
				c-13.9-5.1-28-11.8-42.3-20c-20-11.5-38.5-24.7-55.5-39.4c-17-14.8-31.7-30.1-44.2-46.1c-12.4-16-23.1-32.6-31.8-49.8
				C54,285.3,47.4,268.2,43,251.1c-4.3-17.1-6.5-33.7-6.5-49.8c0.1-21.6,2.9-40.4,8.5-56.4c5.6-16,13.2-28.6,22.9-37.7
				c5-4.6,10.4-8.7,16.2-12C111.6,79.3,148.2,58,175.6,42.1z"/>
		</g>
		<g class="st0">
			<defs>
				<path id="SVGID_31_" class="st0" d="M174.9,207.5l91.4-53.1c-1.1,0.6-2.2,1.4-3.3,2.1c-13.4,9.7-20.2,26.8-20.2,51.3
					c0,13.7,2.7,26.2,8.4,37.6c5.6,11.4,13.2,19.9,22.7,25.4c9.7,5.6,18.9,7,27.7,4.3c3-0.9,5.8-2.2,8.5-3.7l-91.4,53.1
					c-2.7,1.5-5.5,2.8-8.5,3.7c-8.8,2.7-18,1.3-27.7-4.3c-9.6-5.5-17.1-14-22.7-25.4c-5.6-11.4-8.4-23.9-8.4-37.6
					c0.1-24.5,6.8-41.6,20.2-51.3C172.7,208.9,173.8,208.2,174.9,207.5z"/>
			</defs>
			<clipPath id="SVGID_32_">
				<use xlink:href="#SVGID_31_"  style="overflow:visible;"/>
			</clipPath>
			<g class="st27">
				<g>
					<path class="st4" d="M219.1,210.9l91.4-53.1c-18.2-10.5-34-10.9-47.4-1.3l-91.4,53.1C185.1,200,200.9,200.4,219.1,210.9z"/>
				</g>
				<g>
					<path class="st4" d="M171.6,209.7l91.4-53.1c-13.4,9.7-20.2,26.8-20.2,51.3l-91.4,53.1C151.5,236.4,158.2,219.3,171.6,209.7z"
						/>
					<line class="st4" x1="160.5" y1="221.8" x2="251.9" y2="168.7"/>
					<line class="st4" x1="153.7" y1="238.9" x2="245.1" y2="185.8"/>
				</g>
				<g>
					<path class="st4" d="M151.4,260.9l91.4-53.1c0,13.7,2.7,26.2,8.4,37.6l-91.4,53.1C154.2,287.1,151.4,274.6,151.4,260.9z"/>
					<line class="st4" x1="152.3" y1="274.2" x2="243.8" y2="221.1"/>
					<line class="st4" x1="155.1" y1="286.7" x2="246.5" y2="233.6"/>
				</g>
				<g>
					<path class="st4" d="M159.8,298.5l91.4-53.1c5.6,11.4,13.2,19.9,22.7,25.4l-91.4,53.1C173,318.4,165.4,309.9,159.8,298.5z"/>
					<line class="st4" x1="166" y1="308.9" x2="257.5" y2="255.8"/>
					<line class="st4" x1="173.6" y1="317.4" x2="265.1" y2="264.3"/>
				</g>
				<g>
					<path class="st4" d="M182.5,323.9l91.4-53.1c9.7,5.6,18.9,7,27.7,4.3l-91.4,53.1C201.5,330.9,192.2,329.5,182.5,323.9z"/>
					<line class="st4" x1="192.1" y1="328.1" x2="283.5" y2="275"/>
					<line class="st4" x1="201.3" y1="329.5" x2="292.7" y2="276.4"/>
				</g>
				<g>
					<path class="st4" d="M210.3,328.2l91.4-53.1c8.8-2.7,16-8,21.8-15.9L232,312.3C226.3,320.1,219.1,325.5,210.3,328.2z"/>
					<line class="st4" x1="218.5" y1="324.6" x2="310" y2="271.5"/>
				</g>
			</g>
			<path class="st28" d="M174.9,207.5l91.4-53.1c-1.1,0.6-2.2,1.4-3.3,2.1c-13.4,9.7-20.2,26.8-20.2,51.3c0,13.7,2.7,26.2,8.4,37.6
				c5.6,11.4,13.2,19.9,22.7,25.4c9.7,5.6,18.9,7,27.7,4.3c3-0.9,5.8-2.2,8.5-3.7l-91.4,53.1c-2.7,1.5-5.5,2.8-8.5,3.7
				c-8.8,2.7-18,1.3-27.7-4.3c-9.6-5.5-17.1-14-22.7-25.4c-5.6-11.4-8.4-23.9-8.4-37.6c0.1-24.5,6.8-41.6,20.2-51.3
				C172.7,208.9,173.8,208.2,174.9,207.5z"/>
		</g>
		<g class="st0">
			<defs>
				<path id="SVGID_33_" class="st0" d="M266.4,154.4c12.7-7.4,27.4-6.3,44.1,3.4c9.2,5.3,16.2,12.9,21.1,22.8
					c4.9,9.9,7.3,20.8,7.3,32.6c0,5.8-0.8,11.7-2.2,17.6l-91.4,53.1c1.5-5.9,2.2-11.8,2.2-17.6c0-11.8-2.4-22.7-7.3-32.6
					c-4.9-9.9-11.9-17.5-21.1-22.8c-16.7-9.6-31.4-10.8-44.1-3.4C202.4,191.6,238.9,170.3,266.4,154.4z"/>
			</defs>
			<clipPath id="SVGID_34_">
				<use xlink:href="#SVGID_33_"  style="overflow:visible;"/>
			</clipPath>
			<g class="st29">
				<g>
					<path class="st4" d="M245.2,283.9l91.4-53.1c1.5-5.9,2.2-11.8,2.2-17.6l-91.4,53.1C247.4,272.1,246.7,277.9,245.2,283.9z"/>
					<line class="st4" x1="246.4" y1="278" x2="337.9" y2="224.8"/>
					<line class="st4" x1="247.2" y1="272.1" x2="338.6" y2="219"/>
				</g>
				<g>
					<path class="st4" d="M247.4,266.3l91.4-53.1c0-11.8-2.4-22.7-7.3-32.6l-91.4,53.1C245.1,243.6,247.5,254.5,247.4,266.3z"/>
					<line class="st4" x1="246.7" y1="254.8" x2="338.1" y2="201.7"/>
					<line class="st4" x1="244.2" y1="243.9" x2="335.7" y2="190.8"/>
				</g>
				<g>
					<path class="st4" d="M240.1,233.7l91.4-53.1c-4.9-9.9-11.9-17.5-21.1-22.8l-91.4,53.1C228.3,216.2,235.3,223.8,240.1,233.7z"/>
					<line class="st4" x1="234.6" y1="224.6" x2="326" y2="171.4"/>
					<line class="st4" x1="227.5" y1="217" x2="319" y2="163.8"/>
				</g>
				<g>
					<path class="st4" d="M219.1,210.9l91.4-53.1c-18.2-10.5-34-10.9-47.4-1.3l-91.4,53.1C185.1,200,200.9,200.4,219.1,210.9z"/>
					<line class="st4" x1="201.7" y1="203.8" x2="293.1" y2="150.6"/>
					<line class="st4" x1="185.9" y1="203.4" x2="277.3" y2="150.2"/>
				</g>
			</g>
			<path class="st30" d="M266.4,154.4c12.7-7.4,27.4-6.3,44.1,3.4c9.2,5.3,16.2,12.9,21.1,22.8c4.9,9.9,7.3,20.8,7.3,32.6
				c0,5.8-0.8,11.7-2.2,17.6l-91.4,53.1c1.5-5.9,2.2-11.8,2.2-17.6c0-11.8-2.4-22.7-7.3-32.6c-4.9-9.9-11.9-17.5-21.1-22.8
				c-16.7-9.6-31.4-10.8-44.1-3.4C202.4,191.6,238.9,170.3,266.4,154.4z"/>
		</g>
		<g class="st0">
			<defs>
				<path id="SVGID_35_" class="st0" d="M218.8,324.5c5.1-3,9.5-7,13.3-12.2c5.7-7.9,10.1-17.4,13.1-28.4l91.4-53.1
					c-3.1,11.1-7.4,20.5-13.1,28.4c-3.8,5.1-8.2,9.2-13.3,12.2C282.8,287.3,246.2,308.5,218.8,324.5z"/>
			</defs>
			<clipPath id="SVGID_36_">
				<use xlink:href="#SVGID_35_"  style="overflow:visible;"/>
			</clipPath>
			<g class="st31">
				<g>
					<path class="st4" d="M210.3,328.2l91.4-53.1c8.8-2.7,16-8,21.8-15.9L232,312.3C226.3,320.1,219.1,325.5,210.3,328.2z"/>
					<line class="st4" x1="225.8" y1="319.3" x2="317.2" y2="266.2"/>
				</g>
				<g>
					<path class="st4" d="M232,312.3l91.4-53.1c5.7-7.9,10.1-17.4,13.1-28.4l-91.4,53.1C242.1,294.9,237.7,304.4,232,312.3z"/>
					<line class="st4" x1="237.3" y1="303.9" x2="328.7" y2="250.7"/>
					<line class="st4" x1="241.7" y1="294.4" x2="333.1" y2="241.3"/>
				</g>
			</g>
			<path class="st32" d="M218.8,324.5c5.1-3,9.5-7,13.3-12.2c5.7-7.9,10.1-17.4,13.1-28.4l91.4-53.1c-3.1,11.1-7.4,20.5-13.1,28.4
				c-3.8,5.1-8.2,9.2-13.3,12.2C282.8,287.3,246.2,308.5,218.8,324.5z"/>
		</g>
	</g>
</g>
</svg>
