<?xml version="1.0" encoding="utf-8"?>
<!-- Generator: Adobe Illustrator 22.1.0, SVG Export Plug-In . SVG Version: 6.00 Build 0)  -->
<svg version="1.1" id="Layer_1" xmlns="http://www.w3.org/2000/svg" xmlns:xlink="http://www.w3.org/1999/xlink" x="0px" y="0px"
	 viewBox="0 0 500 500" style="enable-background:new 0 0 500 500;" xml:space="preserve">
<style type="text/css">
	.st0{enable-background:new    ;}
	.st1{clip-path:url(#SVGID_2_);fill:none;stroke:#000000;stroke-width:1.6314;stroke-miterlimit:10;}
	.st2{clip-path:url(#SVGID_4_);fill:none;stroke:#000000;stroke-width:1.6314;stroke-miterlimit:10;}
	.st3{clip-path:url(#SVGID_6_);fill:none;stroke:#000000;stroke-width:1.6314;stroke-miterlimit:10;}
	.st4{clip-path:url(#SVGID_8_);fill:none;stroke:#000000;stroke-width:1.6314;stroke-miterlimit:10;}
	.st5{clip-path:url(#SVGID_10_);fill:none;stroke:#000000;stroke-width:1.6314;stroke-miterlimit:10;}
	.st6{clip-path:url(#SVGID_12_);fill:none;stroke:#000000;stroke-width:1.6314;stroke-miterlimit:10;}
	.st7{clip-path:url(#SVGID_14_);fill:none;stroke:#000000;stroke-width:1.6314;stroke-miterlimit:10;}
	.st8{clip-path:url(#SVGID_16_);fill:none;stroke:#000000;stroke-width:1.6314;stroke-miterlimit:10;}
	.st9{clip-path:url(#SVGID_18_);fill:none;stroke:#000000;stroke-width:1.6314;stroke-miterlimit:10;}
	.st10{clip-path:url(#SVGID_20_);fill:none;stroke:#000000;stroke-width:1.6314;stroke-miterlimit:10;}
	.st11{clip-path:url(#SVGID_22_);fill:none;stroke:#000000;stroke-width:1.6314;stroke-miterlimit:10;}
	.st12{clip-path:url(#SVGID_24_);fill:none;stroke:#000000;stroke-width:1.6314;stroke-miterlimit:10;}
	.st13{clip-path:url(#SVGID_26_);fill:none;stroke:#000000;stroke-width:1.6314;stroke-miterlimit:10;}
	.st14{clip-path:url(#SVGID_28_);fill:none;stroke:#000000;stroke-width:1.6314;stroke-miterlimit:10;}
	.st15{clip-path:url(#SVGID_30_);fill:none;stroke:#000000;stroke-width:1.6314;stroke-miterlimit:10;}
	.st16{clip-path:url(#SVGID_32_);fill:none;stroke:#000000;stroke-width:1.6314;stroke-miterlimit:10;}
	.st17{clip-path:url(#SVGID_34_);fill:none;stroke:#000000;stroke-width:1.6314;stroke-miterlimit:10;}
	.st18{clip-path:url(#SVGID_36_);fill:none;stroke:#000000;stroke-width:1.6314;stroke-miterlimit:10;}
	.st19{clip-path:url(#SVGID_38_);fill:none;stroke:#000000;stroke-width:1.6314;stroke-miterlimit:10;}
	.st20{clip-path:url(#SVGID_40_);fill:none;stroke:#000000;stroke-width:1.6314;stroke-miterlimit:10;}
	.st21{clip-path:url(#SVGID_42_);fill:none;stroke:#000000;stroke-width:1.6314;stroke-miterlimit:10;}
	.st22{clip-path:url(#SVGID_44_);fill:none;stroke:#000000;stroke-width:1.6314;stroke-miterlimit:10;}
	.st23{clip-path:url(#SVGID_46_);fill:none;stroke:#000000;stroke-width:1.6314;stroke-miterlimit:10;}
	.st24{clip-path:url(#SVGID_48_);fill:none;stroke:#000000;stroke-width:1.6314;stroke-miterlimit:10;}
	.st25{clip-path:url(#SVGID_50_);fill:none;stroke:#000000;stroke-width:1.6314;stroke-miterlimit:10;}
	.st26{clip-path:url(#SVGID_52_);fill:none;stroke:#000000;stroke-width:1.6314;stroke-miterlimit:10;}
	.st27{clip-path:url(#SVGID_54_);fill:none;stroke:#000000;stroke-width:1.6314;stroke-miterlimit:10;}
	.st28{clip-path:url(#SVGID_56_);fill:none;stroke:#000000;stroke-width:1.6314;stroke-miterlimit:10;}
	.st29{clip-path:url(#SVGID_58_);fill:none;stroke:#000000;stroke-width:1.6314;stroke-miterlimit:10;}
	.st30{clip-path:url(#SVGID_60_);fill:none;stroke:#000000;stroke-width:1.6314;stroke-miterlimit:10;}
	.st31{clip-path:url(#SVGID_62_);fill:none;stroke:#000000;stroke-width:1.6314;stroke-miterlimit:10;}
	.st32{clip-path:url(#SVGID_64_);fill:none;stroke:#000000;stroke-width:1.6314;stroke-miterlimit:10;}
	.st33{clip-path:url(#SVGID_66_);fill:none;stroke:#000000;stroke-width:1.6314;stroke-miterlimit:10;}
	.st34{clip-path:url(#SVGID_68_);fill:none;stroke:#000000;stroke-width:1.6314;stroke-miterlimit:10;}
	.st35{clip-path:url(#SVGID_70_);fill:none;stroke:#000000;stroke-width:1.6314;stroke-miterlimit:10;}
	.st36{clip-path:url(#SVGID_72_);fill:none;stroke:#000000;stroke-width:1.6314;stroke-miterlimit:10;}
</style>
<g>
	<g class="st0">
		<g class="st0">
			<defs>
				<polygon id="SVGID_1_" class="st0" points="156.2,2.3 226.9,43.1 224.8,236.5 157.2,197.5 				"/>
			</defs>
			<clipPath id="SVGID_2_">
				<use xlink:href="#SVGID_1_"  style="overflow:visible;"/>
			</clipPath>
			<polygon class="st1" points="156.2,2.3 226.9,43.1 224.8,236.5 157.2,197.5 			"/>
		</g>
		<g class="st0">
			<defs>
				<polygon id="SVGID_3_" class="st0" points="64.2,55.7 134.9,96.5 132.8,290 65.3,251 				"/>
			</defs>
			<clipPath id="SVGID_4_">
				<use xlink:href="#SVGID_3_"  style="overflow:visible;"/>
			</clipPath>
			<polygon class="st2" points="64.2,55.7 134.9,96.5 132.8,290 65.3,251 			"/>
		</g>
		<g class="st0">
			<defs>
				<polygon id="SVGID_5_" class="st0" points="64.2,55.7 156.2,2.3 226.9,43.1 134.9,96.5 				"/>
			</defs>
			<clipPath id="SVGID_6_">
				<use xlink:href="#SVGID_5_"  style="overflow:visible;"/>
			</clipPath>
			<polygon class="st3" points="64.2,55.7 156.2,2.3 226.9,43.1 134.9,96.5 			"/>
		</g>
		<g class="st0">
			<defs>
				<polygon id="SVGID_7_" class="st0" points="134.9,96.5 226.9,43.1 224.8,236.5 132.8,290 				"/>
			</defs>
			<clipPath id="SVGID_8_">
				<use xlink:href="#SVGID_7_"  style="overflow:visible;"/>
			</clipPath>
			<polygon class="st4" points="134.9,96.5 226.9,43.1 224.8,236.5 132.8,290 			"/>
		</g>
		<g class="st0">
			<defs>
				<polygon id="SVGID_9_" class="st0" points="132.8,290 65.3,251 157.2,197.5 224.8,236.5 				"/>
			</defs>
			<clipPath id="SVGID_10_">
				<use xlink:href="#SVGID_9_"  style="overflow:visible;"/>
			</clipPath>
			<polygon class="st5" points="132.8,290 65.3,251 157.2,197.5 224.8,236.5 			"/>
		</g>
		<g class="st0">
			<defs>
				<polygon id="SVGID_11_" class="st0" points="65.3,251 64.2,55.7 156.2,2.3 157.2,197.5 				"/>
			</defs>
			<clipPath id="SVGID_12_">
				<use xlink:href="#SVGID_11_"  style="overflow:visible;"/>
			</clipPath>
			<polygon class="st6" points="65.3,251 64.2,55.7 156.2,2.3 157.2,197.5 			"/>
		</g>
		<g class="st0">
			<defs>
				<polygon id="SVGID_13_" class="st0" points="157,284.9 157.1,231 224.3,269.7 224.1,323.7 				"/>
			</defs>
			<clipPath id="SVGID_14_">
				<use xlink:href="#SVGID_13_"  style="overflow:visible;"/>
			</clipPath>
			<polygon class="st7" points="157,284.9 157.1,231 224.3,269.7 224.1,323.7 			"/>
		</g>
		<g class="st0">
			<defs>
				<polygon id="SVGID_15_" class="st0" points="65,338.4 65.2,284.4 132.3,323.2 132.1,377.1 				"/>
			</defs>
			<clipPath id="SVGID_16_">
				<use xlink:href="#SVGID_15_"  style="overflow:visible;"/>
			</clipPath>
			<polygon class="st8" points="65,338.4 65.2,284.4 132.3,323.2 132.1,377.1 			"/>
		</g>
		<g class="st0">
			<defs>
				<polygon id="SVGID_17_" class="st0" points="65,338.4 65.2,284.4 157.1,231 157,284.9 				"/>
			</defs>
			<clipPath id="SVGID_18_">
				<use xlink:href="#SVGID_17_"  style="overflow:visible;"/>
			</clipPath>
			<polygon class="st9" points="65,338.4 65.2,284.4 157.1,231 157,284.9 			"/>
		</g>
		<g class="st0">
			<defs>
				<polygon id="SVGID_19_" class="st0" points="65.2,284.4 157.1,231 224.3,269.7 132.3,323.2 				"/>
			</defs>
			<clipPath id="SVGID_20_">
				<use xlink:href="#SVGID_19_"  style="overflow:visible;"/>
			</clipPath>
			<polygon class="st10" points="65.2,284.4 157.1,231 224.3,269.7 132.3,323.2 			"/>
		</g>
		<g class="st0">
			<defs>
				<polygon id="SVGID_21_" class="st0" points="132.3,323.2 224.3,269.7 224.1,323.7 132.1,377.1 				"/>
			</defs>
			<clipPath id="SVGID_22_">
				<use xlink:href="#SVGID_21_"  style="overflow:visible;"/>
			</clipPath>
			<polygon class="st11" points="132.3,323.2 224.3,269.7 224.1,323.7 132.1,377.1 			"/>
		</g>
		<g class="st0">
			<defs>
				<polygon id="SVGID_23_" class="st0" points="132.1,377.1 65,338.4 157,284.9 224.1,323.7 				"/>
			</defs>
			<clipPath id="SVGID_24_">
				<use xlink:href="#SVGID_23_"  style="overflow:visible;"/>
			</clipPath>
			<polygon class="st12" points="132.1,377.1 65,338.4 157,284.9 224.1,323.7 			"/>
		</g>
		<g class="st0">
			<defs>
				<polygon id="SVGID_25_" class="st0" points="260.7,62.6 331.4,103.4 329.2,296.8 261.7,257.9 				"/>
			</defs>
			<clipPath id="SVGID_26_">
				<use xlink:href="#SVGID_25_"  style="overflow:visible;"/>
			</clipPath>
			<polygon class="st13" points="260.7,62.6 331.4,103.4 329.2,296.8 261.7,257.9 			"/>
		</g>
		<g class="st0">
			<defs>
				<polygon id="SVGID_27_" class="st0" points="168.7,116 239.4,156.8 237.2,350.3 169.7,311.3 				"/>
			</defs>
			<clipPath id="SVGID_28_">
				<use xlink:href="#SVGID_27_"  style="overflow:visible;"/>
			</clipPath>
			<polygon class="st14" points="168.7,116 239.4,156.8 237.2,350.3 169.7,311.3 			"/>
		</g>
		<g class="st0">
			<defs>
				<polygon id="SVGID_29_" class="st0" points="168.7,116 260.7,62.6 331.4,103.4 239.4,156.8 				"/>
			</defs>
			<clipPath id="SVGID_30_">
				<use xlink:href="#SVGID_29_"  style="overflow:visible;"/>
			</clipPath>
			<polygon class="st15" points="168.7,116 260.7,62.6 331.4,103.4 239.4,156.8 			"/>
		</g>
		<g class="st0">
			<defs>
				<polygon id="SVGID_31_" class="st0" points="239.4,156.8 331.4,103.4 329.2,296.8 237.2,350.3 				"/>
			</defs>
			<clipPath id="SVGID_32_">
				<use xlink:href="#SVGID_31_"  style="overflow:visible;"/>
			</clipPath>
			<polygon class="st16" points="239.4,156.8 331.4,103.4 329.2,296.8 237.2,350.3 			"/>
		</g>
		<g class="st0">
			<defs>
				<polygon id="SVGID_33_" class="st0" points="237.2,350.3 169.7,311.3 261.7,257.9 329.2,296.8 				"/>
			</defs>
			<clipPath id="SVGID_34_">
				<use xlink:href="#SVGID_33_"  style="overflow:visible;"/>
			</clipPath>
			<polygon class="st17" points="237.2,350.3 169.7,311.3 261.7,257.9 329.2,296.8 			"/>
		</g>
		<g class="st0">
			<defs>
				<polygon id="SVGID_35_" class="st0" points="169.7,311.3 168.7,116 260.7,62.6 261.7,257.9 				"/>
			</defs>
			<clipPath id="SVGID_36_">
				<use xlink:href="#SVGID_35_"  style="overflow:visible;"/>
			</clipPath>
			<polygon class="st18" points="169.7,311.3 168.7,116 260.7,62.6 261.7,257.9 			"/>
		</g>
		<g class="st0">
			<defs>
				<polygon id="SVGID_37_" class="st0" points="261.4,345.2 261.6,291.3 328.7,330 328.6,384 				"/>
			</defs>
			<clipPath id="SVGID_38_">
				<use xlink:href="#SVGID_37_"  style="overflow:visible;"/>
			</clipPath>
			<polygon class="st19" points="261.4,345.2 261.6,291.3 328.7,330 328.6,384 			"/>
		</g>
		<g class="st0">
			<defs>
				<polygon id="SVGID_39_" class="st0" points="169.5,398.7 169.6,344.7 236.7,383.5 236.6,437.4 				"/>
			</defs>
			<clipPath id="SVGID_40_">
				<use xlink:href="#SVGID_39_"  style="overflow:visible;"/>
			</clipPath>
			<polygon class="st20" points="169.5,398.7 169.6,344.7 236.7,383.5 236.6,437.4 			"/>
		</g>
		<g class="st0">
			<defs>
				<polygon id="SVGID_41_" class="st0" points="169.5,398.7 169.6,344.7 261.6,291.3 261.4,345.2 				"/>
			</defs>
			<clipPath id="SVGID_42_">
				<use xlink:href="#SVGID_41_"  style="overflow:visible;"/>
			</clipPath>
			<polygon class="st21" points="169.5,398.7 169.6,344.7 261.6,291.3 261.4,345.2 			"/>
		</g>
		<g class="st0">
			<defs>
				<polygon id="SVGID_43_" class="st0" points="169.6,344.7 261.6,291.3 328.7,330 236.7,383.5 				"/>
			</defs>
			<clipPath id="SVGID_44_">
				<use xlink:href="#SVGID_43_"  style="overflow:visible;"/>
			</clipPath>
			<polygon class="st22" points="169.6,344.7 261.6,291.3 328.7,330 236.7,383.5 			"/>
		</g>
		<g class="st0">
			<defs>
				<polygon id="SVGID_45_" class="st0" points="236.7,383.5 328.7,330 328.6,384 236.6,437.4 				"/>
			</defs>
			<clipPath id="SVGID_46_">
				<use xlink:href="#SVGID_45_"  style="overflow:visible;"/>
			</clipPath>
			<polygon class="st23" points="236.7,383.5 328.7,330 328.6,384 236.6,437.4 			"/>
		</g>
		<g class="st0">
			<defs>
				<polygon id="SVGID_47_" class="st0" points="236.6,437.4 169.5,398.7 261.4,345.2 328.6,384 				"/>
			</defs>
			<clipPath id="SVGID_48_">
				<use xlink:href="#SVGID_47_"  style="overflow:visible;"/>
			</clipPath>
			<polygon class="st24" points="236.6,437.4 169.5,398.7 261.4,345.2 328.6,384 			"/>
		</g>
		<g class="st0">
			<defs>
				<polygon id="SVGID_49_" class="st0" points="365.1,122.9 435.8,163.7 433.7,357.1 366.1,318.2 				"/>
			</defs>
			<clipPath id="SVGID_50_">
				<use xlink:href="#SVGID_49_"  style="overflow:visible;"/>
			</clipPath>
			<polygon class="st25" points="365.1,122.9 435.8,163.7 433.7,357.1 366.1,318.2 			"/>
		</g>
		<g class="st0">
			<defs>
				<polygon id="SVGID_51_" class="st0" points="273.1,176.3 343.8,217.1 341.7,410.6 274.2,371.6 				"/>
			</defs>
			<clipPath id="SVGID_52_">
				<use xlink:href="#SVGID_51_"  style="overflow:visible;"/>
			</clipPath>
			<polygon class="st26" points="273.1,176.3 343.8,217.1 341.7,410.6 274.2,371.6 			"/>
		</g>
		<g class="st0">
			<defs>
				<polygon id="SVGID_53_" class="st0" points="273.1,176.3 365.1,122.9 435.8,163.7 343.8,217.1 				"/>
			</defs>
			<clipPath id="SVGID_54_">
				<use xlink:href="#SVGID_53_"  style="overflow:visible;"/>
			</clipPath>
			<polygon class="st27" points="273.1,176.3 365.1,122.9 435.8,163.7 343.8,217.1 			"/>
		</g>
		<g class="st0">
			<defs>
				<polygon id="SVGID_55_" class="st0" points="343.8,217.1 435.8,163.7 433.7,357.1 341.7,410.6 				"/>
			</defs>
			<clipPath id="SVGID_56_">
				<use xlink:href="#SVGID_55_"  style="overflow:visible;"/>
			</clipPath>
			<polygon class="st28" points="343.8,217.1 435.8,163.7 433.7,357.1 341.7,410.6 			"/>
		</g>
		<g class="st0">
			<defs>
				<polygon id="SVGID_57_" class="st0" points="341.7,410.6 274.2,371.6 366.1,318.2 433.7,357.1 				"/>
			</defs>
			<clipPath id="SVGID_58_">
				<use xlink:href="#SVGID_57_"  style="overflow:visible;"/>
			</clipPath>
			<polygon class="st29" points="341.7,410.6 274.2,371.6 366.1,318.2 433.7,357.1 			"/>
		</g>
		<g class="st0">
			<defs>
				<polygon id="SVGID_59_" class="st0" points="274.2,371.6 273.1,176.3 365.1,122.9 366.1,318.2 				"/>
			</defs>
			<clipPath id="SVGID_60_">
				<use xlink:href="#SVGID_59_"  style="overflow:visible;"/>
			</clipPath>
			<polygon class="st30" points="274.2,371.6 273.1,176.3 365.1,122.9 366.1,318.2 			"/>
		</g>
		<g class="st0">
			<defs>
				<polygon id="SVGID_61_" class="st0" points="365.9,405.5 366,351.6 433.2,390.3 433,444.3 				"/>
			</defs>
			<clipPath id="SVGID_62_">
				<use xlink:href="#SVGID_61_"  style="overflow:visible;"/>
			</clipPath>
			<polygon class="st31" points="365.9,405.5 366,351.6 433.2,390.3 433,444.3 			"/>
		</g>
		<g class="st0">
			<defs>
				<polygon id="SVGID_63_" class="st0" points="273.9,459 274.1,405 341.2,443.8 341,497.7 				"/>
			</defs>
			<clipPath id="SVGID_64_">
				<use xlink:href="#SVGID_63_"  style="overflow:visible;"/>
			</clipPath>
			<polygon class="st32" points="273.9,459 274.1,405 341.2,443.8 341,497.7 			"/>
		</g>
		<g class="st0">
			<defs>
				<polygon id="SVGID_65_" class="st0" points="273.9,459 274.1,405 366,351.6 365.9,405.5 				"/>
			</defs>
			<clipPath id="SVGID_66_">
				<use xlink:href="#SVGID_65_"  style="overflow:visible;"/>
			</clipPath>
			<polygon class="st33" points="273.9,459 274.1,405 366,351.6 365.9,405.5 			"/>
		</g>
		<g class="st0">
			<defs>
				<polygon id="SVGID_67_" class="st0" points="274.1,405 366,351.6 433.2,390.3 341.2,443.8 				"/>
			</defs>
			<clipPath id="SVGID_68_">
				<use xlink:href="#SVGID_67_"  style="overflow:visible;"/>
			</clipPath>
			<polygon class="st34" points="274.1,405 366,351.6 433.2,390.3 341.2,443.8 			"/>
		</g>
		<g class="st0">
			<defs>
				<polygon id="SVGID_69_" class="st0" points="341.2,443.8 433.2,390.3 433,444.3 341,497.7 				"/>
			</defs>
			<clipPath id="SVGID_70_">
				<use xlink:href="#SVGID_69_"  style="overflow:visible;"/>
			</clipPath>
			<polygon class="st35" points="341.2,443.8 433.2,390.3 433,444.3 341,497.7 			"/>
		</g>
		<g class="st0">
			<defs>
				<polygon id="SVGID_71_" class="st0" points="341,497.7 273.9,459 365.9,405.5 433,444.3 				"/>
			</defs>
			<clipPath id="SVGID_72_">
				<use xlink:href="#SVGID_71_"  style="overflow:visible;"/>
			</clipPath>
			<polygon class="st36" points="341,497.7 273.9,459 365.9,405.5 433,444.3 			"/>
		</g>
	</g>
</g>
</svg>
