<?xml version="1.0" encoding="utf-8"?>
<!-- Generator: Adobe Illustrator 22.1.0, SVG Export Plug-In . SVG Version: 6.00 Build 0)  -->
<svg version="1.1" id="Layer_1" xmlns="http://www.w3.org/2000/svg" xmlns:xlink="http://www.w3.org/1999/xlink" x="0px" y="0px"
	 viewBox="0 0 500 500" style="enable-background:new 0 0 500 500;" xml:space="preserve">
<style type="text/css">
	.st0{enable-background:new    ;}
	.st1{clip-path:url(#SVGID_2_);fill:none;stroke:#000000;stroke-width:1.3779;stroke-miterlimit:10;}
	.st2{clip-path:url(#SVGID_4_);fill:none;stroke:#000000;stroke-width:1.3779;stroke-miterlimit:10;}
	.st3{clip-path:url(#SVGID_6_);fill:none;stroke:#000000;stroke-width:1.3779;stroke-miterlimit:10;}
	.st4{clip-path:url(#SVGID_8_);fill:none;stroke:#000000;stroke-width:1.3779;stroke-miterlimit:10;}
	.st5{clip-path:url(#SVGID_10_);fill:none;stroke:#000000;stroke-width:1.3779;stroke-miterlimit:10;}
	.st6{clip-path:url(#SVGID_12_);fill:none;stroke:#000000;stroke-width:1.3779;stroke-miterlimit:10;}
	.st7{clip-path:url(#SVGID_14_);fill:none;stroke:#000000;stroke-width:1.3779;stroke-miterlimit:10;}
	.st8{clip-path:url(#SVGID_16_);fill:none;stroke:#000000;stroke-width:1.3779;stroke-miterlimit:10;}
	.st9{clip-path:url(#SVGID_18_);fill:none;stroke:#000000;stroke-width:1.3779;stroke-miterlimit:10;}
	.st10{clip-path:url(#SVGID_20_);fill:none;stroke:#000000;stroke-width:1.3779;stroke-miterlimit:10;}
	.st11{clip-path:url(#SVGID_22_);fill:none;stroke:#000000;stroke-width:1.3779;stroke-miterlimit:10;}
	.st12{clip-path:url(#SVGID_24_);fill:none;stroke:#000000;stroke-width:1.3779;stroke-miterlimit:10;}
	.st13{clip-path:url(#SVGID_26_);fill:none;stroke:#000000;stroke-width:1.3779;stroke-miterlimit:10;}
	.st14{clip-path:url(#SVGID_28_);fill:none;stroke:#000000;stroke-width:1.3779;stroke-miterlimit:10;}
	.st15{clip-path:url(#SVGID_30_);fill:none;stroke:#000000;stroke-width:1.3779;stroke-miterlimit:10;}
	.st16{clip-path:url(#SVGID_32_);fill:none;stroke:#000000;stroke-width:1.3779;stroke-miterlimit:10;}
	.st17{clip-path:url(#SVGID_34_);fill:none;stroke:#000000;stroke-width:1.3779;stroke-miterlimit:10;}
	.st18{clip-path:url(#SVGID_36_);fill:none;stroke:#000000;stroke-width:1.3779;stroke-miterlimit:10;}
	.st19{clip-path:url(#SVGID_38_);fill:none;stroke:#000000;stroke-width:1.3779;stroke-miterlimit:10;}
	.st20{clip-path:url(#SVGID_40_);fill:none;stroke:#000000;stroke-width:1.3779;stroke-miterlimit:10;}
	.st21{clip-path:url(#SVGID_42_);fill:none;stroke:#000000;stroke-width:1.3779;stroke-miterlimit:10;}
	.st22{clip-path:url(#SVGID_44_);fill:none;stroke:#000000;stroke-width:1.3779;stroke-miterlimit:10;}
	.st23{clip-path:url(#SVGID_46_);fill:none;stroke:#000000;stroke-width:1.3779;stroke-miterlimit:10;}
	.st24{clip-path:url(#SVGID_48_);fill:none;stroke:#000000;stroke-width:1.3779;stroke-miterlimit:10;}
	.st25{clip-path:url(#SVGID_50_);fill:none;stroke:#000000;stroke-width:1.3779;stroke-miterlimit:10;}
	.st26{clip-path:url(#SVGID_52_);fill:none;stroke:#000000;stroke-width:1.3779;stroke-miterlimit:10;}
	.st27{clip-path:url(#SVGID_54_);fill:none;stroke:#000000;stroke-width:1.3779;stroke-miterlimit:10;}
	.st28{clip-path:url(#SVGID_56_);fill:none;stroke:#000000;stroke-width:1.3779;stroke-miterlimit:10;}
	.st29{clip-path:url(#SVGID_58_);fill:none;stroke:#000000;stroke-width:1.3779;stroke-miterlimit:10;}
	.st30{clip-path:url(#SVGID_60_);fill:none;stroke:#000000;stroke-width:1.3779;stroke-miterlimit:10;}
</style>
<g>
	<g class="st0">
		<g class="st0">
			<defs>
				<polygon id="SVGID_1_" class="st0" points="111.3,159.6 111.7,218 70.6,193 69.1,6.2 238.3,109.3 238.6,149.6 110.6,71.6 
					110.9,119.1 225.3,188.7 225.6,229.2 				"/>
			</defs>
			<clipPath id="SVGID_2_">
				<use xlink:href="#SVGID_1_"  style="overflow:visible;"/>
			</clipPath>
			<polygon class="st1" points="111.3,159.6 111.7,218 70.6,193 69.1,6.2 238.3,109.3 238.6,149.6 110.6,71.6 110.9,119.1 
				225.3,188.7 225.6,229.2 			"/>
		</g>
		<g class="st0">
			<defs>
				<polygon id="SVGID_3_" class="st0" points="42.2,199.7 42.7,258.2 1.5,233.1 0,46.4 169.2,149.4 169.5,189.7 41.5,111.7 
					41.9,159.2 156.2,228.8 156.5,269.4 				"/>
			</defs>
			<clipPath id="SVGID_4_">
				<use xlink:href="#SVGID_3_"  style="overflow:visible;"/>
			</clipPath>
			<polygon class="st2" points="42.2,199.7 42.7,258.2 1.5,233.1 0,46.4 169.2,149.4 169.5,189.7 41.5,111.7 41.9,159.2 
				156.2,228.8 156.5,269.4 			"/>
		</g>
		<g class="st0">
			<defs>
				<polygon id="SVGID_5_" class="st0" points="42.2,199.7 111.3,159.6 111.7,218 42.7,258.2 				"/>
			</defs>
			<clipPath id="SVGID_6_">
				<use xlink:href="#SVGID_5_"  style="overflow:visible;"/>
			</clipPath>
			<polygon class="st3" points="42.2,199.7 111.3,159.6 111.7,218 42.7,258.2 			"/>
		</g>
		<g class="st0">
			<defs>
				<polygon id="SVGID_7_" class="st0" points="42.7,258.2 1.5,233.1 70.6,193 111.7,218 				"/>
			</defs>
			<clipPath id="SVGID_8_">
				<use xlink:href="#SVGID_7_"  style="overflow:visible;"/>
			</clipPath>
			<polygon class="st4" points="42.7,258.2 1.5,233.1 70.6,193 111.7,218 			"/>
		</g>
		<g class="st0">
			<defs>
				<polygon id="SVGID_9_" class="st0" points="1.5,233.1 0,46.4 69.1,6.2 70.6,193 				"/>
			</defs>
			<clipPath id="SVGID_10_">
				<use xlink:href="#SVGID_9_"  style="overflow:visible;"/>
			</clipPath>
			<polygon class="st5" points="1.5,233.1 0,46.4 69.1,6.2 70.6,193 			"/>
		</g>
		<g class="st0">
			<defs>
				<polygon id="SVGID_11_" class="st0" points="0,46.4 69.1,6.2 238.3,109.3 169.2,149.4 				"/>
			</defs>
			<clipPath id="SVGID_12_">
				<use xlink:href="#SVGID_11_"  style="overflow:visible;"/>
			</clipPath>
			<polygon class="st6" points="0,46.4 69.1,6.2 238.3,109.3 169.2,149.4 			"/>
		</g>
		<g class="st0">
			<defs>
				<polygon id="SVGID_13_" class="st0" points="169.2,149.4 238.3,109.3 238.6,149.6 169.5,189.7 				"/>
			</defs>
			<clipPath id="SVGID_14_">
				<use xlink:href="#SVGID_13_"  style="overflow:visible;"/>
			</clipPath>
			<polygon class="st7" points="169.2,149.4 238.3,109.3 238.6,149.6 169.5,189.7 			"/>
		</g>
		<g class="st0">
			<defs>
				<polygon id="SVGID_15_" class="st0" points="169.5,189.7 41.5,111.7 110.6,71.6 238.6,149.6 				"/>
			</defs>
			<clipPath id="SVGID_16_">
				<use xlink:href="#SVGID_15_"  style="overflow:visible;"/>
			</clipPath>
			<polygon class="st8" points="169.5,189.7 41.5,111.7 110.6,71.6 238.6,149.6 			"/>
		</g>
		<g class="st0">
			<defs>
				<polygon id="SVGID_17_" class="st0" points="41.5,111.7 110.6,71.6 110.9,119.1 41.9,159.2 				"/>
			</defs>
			<clipPath id="SVGID_18_">
				<use xlink:href="#SVGID_17_"  style="overflow:visible;"/>
			</clipPath>
			<polygon class="st9" points="41.5,111.7 110.6,71.6 110.9,119.1 41.9,159.2 			"/>
		</g>
		<g class="st0">
			<defs>
				<polygon id="SVGID_19_" class="st0" points="41.9,159.2 110.9,119.1 225.3,188.7 156.2,228.8 				"/>
			</defs>
			<clipPath id="SVGID_20_">
				<use xlink:href="#SVGID_19_"  style="overflow:visible;"/>
			</clipPath>
			<polygon class="st10" points="41.9,159.2 110.9,119.1 225.3,188.7 156.2,228.8 			"/>
		</g>
		<g class="st0">
			<defs>
				<polygon id="SVGID_21_" class="st0" points="156.2,228.8 225.3,188.7 225.6,229.2 156.5,269.4 				"/>
			</defs>
			<clipPath id="SVGID_22_">
				<use xlink:href="#SVGID_21_"  style="overflow:visible;"/>
			</clipPath>
			<polygon class="st11" points="156.2,228.8 225.3,188.7 225.6,229.2 156.5,269.4 			"/>
		</g>
		<g class="st0">
			<defs>
				<polygon id="SVGID_23_" class="st0" points="156.5,269.4 42.2,199.7 111.3,159.6 225.6,229.2 				"/>
			</defs>
			<clipPath id="SVGID_24_">
				<use xlink:href="#SVGID_23_"  style="overflow:visible;"/>
			</clipPath>
			<polygon class="st12" points="156.5,269.4 42.2,199.7 111.3,159.6 225.6,229.2 			"/>
		</g>
		<g class="st0">
			<defs>
				<polygon id="SVGID_25_" class="st0" points="305.8,336.2 264.7,311.2 263.2,124.4 432.4,227.5 432.7,267.8 304.7,189.8 
					305.1,237.3 419.4,306.9 419.7,347.4 305.4,277.8 				"/>
			</defs>
			<clipPath id="SVGID_26_">
				<use xlink:href="#SVGID_25_"  style="overflow:visible;"/>
			</clipPath>
			<polygon class="st13" points="305.8,336.2 264.7,311.2 263.2,124.4 432.4,227.5 432.7,267.8 304.7,189.8 305.1,237.3 
				419.4,306.9 419.7,347.4 305.4,277.8 			"/>
		</g>
		<g class="st0">
			<defs>
				<polygon id="SVGID_27_" class="st0" points="236.8,376.4 195.6,351.3 194.1,164.6 363.3,267.6 363.7,307.9 235.6,229.9 
					236,277.4 350.3,347 350.6,387.6 236.3,317.9 				"/>
			</defs>
			<clipPath id="SVGID_28_">
				<use xlink:href="#SVGID_27_"  style="overflow:visible;"/>
			</clipPath>
			<polygon class="st14" points="236.8,376.4 195.6,351.3 194.1,164.6 363.3,267.6 363.7,307.9 235.6,229.9 236,277.4 350.3,347 
				350.6,387.6 236.3,317.9 			"/>
		</g>
		<g class="st0">
			<defs>
				<polygon id="SVGID_29_" class="st0" points="236.8,376.4 195.6,351.3 264.7,311.2 305.8,336.2 				"/>
			</defs>
			<clipPath id="SVGID_30_">
				<use xlink:href="#SVGID_29_"  style="overflow:visible;"/>
			</clipPath>
			<polygon class="st15" points="236.8,376.4 195.6,351.3 264.7,311.2 305.8,336.2 			"/>
		</g>
		<g class="st0">
			<defs>
				<polygon id="SVGID_31_" class="st0" points="195.6,351.3 194.1,164.6 263.2,124.4 264.7,311.2 				"/>
			</defs>
			<clipPath id="SVGID_32_">
				<use xlink:href="#SVGID_31_"  style="overflow:visible;"/>
			</clipPath>
			<polygon class="st16" points="195.6,351.3 194.1,164.6 263.2,124.4 264.7,311.2 			"/>
		</g>
		<g class="st0">
			<defs>
				<polygon id="SVGID_33_" class="st0" points="194.1,164.6 263.2,124.4 432.4,227.5 363.3,267.6 				"/>
			</defs>
			<clipPath id="SVGID_34_">
				<use xlink:href="#SVGID_33_"  style="overflow:visible;"/>
			</clipPath>
			<polygon class="st17" points="194.1,164.6 263.2,124.4 432.4,227.5 363.3,267.6 			"/>
		</g>
		<g class="st0">
			<defs>
				<polygon id="SVGID_35_" class="st0" points="363.3,267.6 432.4,227.5 432.7,267.8 363.7,307.9 				"/>
			</defs>
			<clipPath id="SVGID_36_">
				<use xlink:href="#SVGID_35_"  style="overflow:visible;"/>
			</clipPath>
			<polygon class="st18" points="363.3,267.6 432.4,227.5 432.7,267.8 363.7,307.9 			"/>
		</g>
		<g class="st0">
			<defs>
				<polygon id="SVGID_37_" class="st0" points="363.7,307.9 235.6,229.9 304.7,189.8 432.7,267.8 				"/>
			</defs>
			<clipPath id="SVGID_38_">
				<use xlink:href="#SVGID_37_"  style="overflow:visible;"/>
			</clipPath>
			<polygon class="st19" points="363.7,307.9 235.6,229.9 304.7,189.8 432.7,267.8 			"/>
		</g>
		<g class="st0">
			<defs>
				<polygon id="SVGID_39_" class="st0" points="235.6,229.9 304.7,189.8 305.1,237.3 236,277.4 				"/>
			</defs>
			<clipPath id="SVGID_40_">
				<use xlink:href="#SVGID_39_"  style="overflow:visible;"/>
			</clipPath>
			<polygon class="st20" points="235.6,229.9 304.7,189.8 305.1,237.3 236,277.4 			"/>
		</g>
		<g class="st0">
			<defs>
				<polygon id="SVGID_41_" class="st0" points="236,277.4 305.1,237.3 419.4,306.9 350.3,347 				"/>
			</defs>
			<clipPath id="SVGID_42_">
				<use xlink:href="#SVGID_41_"  style="overflow:visible;"/>
			</clipPath>
			<polygon class="st21" points="236,277.4 305.1,237.3 419.4,306.9 350.3,347 			"/>
		</g>
		<g class="st0">
			<defs>
				<polygon id="SVGID_43_" class="st0" points="350.3,347 419.4,306.9 419.7,347.4 350.6,387.6 				"/>
			</defs>
			<clipPath id="SVGID_44_">
				<use xlink:href="#SVGID_43_"  style="overflow:visible;"/>
			</clipPath>
			<polygon class="st22" points="350.3,347 419.4,306.9 419.7,347.4 350.6,387.6 			"/>
		</g>
		<g class="st0">
			<defs>
				<polygon id="SVGID_45_" class="st0" points="350.6,387.6 236.3,317.9 305.4,277.8 419.7,347.4 				"/>
			</defs>
			<clipPath id="SVGID_46_">
				<use xlink:href="#SVGID_45_"  style="overflow:visible;"/>
			</clipPath>
			<polygon class="st23" points="350.6,387.6 236.3,317.9 305.4,277.8 419.7,347.4 			"/>
		</g>
		<g class="st0">
			<defs>
				<polygon id="SVGID_47_" class="st0" points="236.3,317.9 305.4,277.8 305.8,336.2 236.8,376.4 				"/>
			</defs>
			<clipPath id="SVGID_48_">
				<use xlink:href="#SVGID_47_"  style="overflow:visible;"/>
			</clipPath>
			<polygon class="st24" points="236.3,317.9 305.4,277.8 305.8,336.2 236.8,376.4 			"/>
		</g>
		<g class="st0">
			<defs>
				<polygon id="SVGID_49_" class="st0" points="458.8,429.4 457.3,242.6 498.5,267.7 500,454.4 				"/>
			</defs>
			<clipPath id="SVGID_50_">
				<use xlink:href="#SVGID_49_"  style="overflow:visible;"/>
			</clipPath>
			<polygon class="st25" points="458.8,429.4 457.3,242.6 498.5,267.7 500,454.4 			"/>
		</g>
		<g class="st0">
			<defs>
				<polygon id="SVGID_51_" class="st0" points="389.7,469.5 388.2,282.8 429.4,307.8 430.9,494.6 				"/>
			</defs>
			<clipPath id="SVGID_52_">
				<use xlink:href="#SVGID_51_"  style="overflow:visible;"/>
			</clipPath>
			<polygon class="st26" points="389.7,469.5 388.2,282.8 429.4,307.8 430.9,494.6 			"/>
		</g>
		<g class="st0">
			<defs>
				<polygon id="SVGID_53_" class="st0" points="389.7,469.5 388.2,282.8 457.3,242.6 458.8,429.4 				"/>
			</defs>
			<clipPath id="SVGID_54_">
				<use xlink:href="#SVGID_53_"  style="overflow:visible;"/>
			</clipPath>
			<polygon class="st27" points="389.7,469.5 388.2,282.8 457.3,242.6 458.8,429.4 			"/>
		</g>
		<g class="st0">
			<defs>
				<polygon id="SVGID_55_" class="st0" points="388.2,282.8 457.3,242.6 498.5,267.7 429.4,307.8 				"/>
			</defs>
			<clipPath id="SVGID_56_">
				<use xlink:href="#SVGID_55_"  style="overflow:visible;"/>
			</clipPath>
			<polygon class="st28" points="388.2,282.8 457.3,242.6 498.5,267.7 429.4,307.8 			"/>
		</g>
		<g class="st0">
			<defs>
				<polygon id="SVGID_57_" class="st0" points="429.4,307.8 498.5,267.7 500,454.4 430.9,494.6 				"/>
			</defs>
			<clipPath id="SVGID_58_">
				<use xlink:href="#SVGID_57_"  style="overflow:visible;"/>
			</clipPath>
			<polygon class="st29" points="429.4,307.8 498.5,267.7 500,454.4 430.9,494.6 			"/>
		</g>
		<g class="st0">
			<defs>
				<polygon id="SVGID_59_" class="st0" points="430.9,494.6 389.7,469.5 458.8,429.4 500,454.4 				"/>
			</defs>
			<clipPath id="SVGID_60_">
				<use xlink:href="#SVGID_59_"  style="overflow:visible;"/>
			</clipPath>
			<polygon class="st30" points="430.9,494.6 389.7,469.5 458.8,429.4 500,454.4 			"/>
		</g>
	</g>
</g>
</svg>
