<?xml version="1.0" encoding="utf-8"?>
<!-- Generator: Adobe Illustrator 22.1.0, SVG Export Plug-In . SVG Version: 6.00 Build 0)  -->
<svg version="1.1" id="Layer_1" xmlns="http://www.w3.org/2000/svg" xmlns:xlink="http://www.w3.org/1999/xlink" x="0px" y="0px"
	 viewBox="0 0 450 100" style="enable-background:new 0 0 450 100;" xml:space="preserve">
<g>
	<path d="M0,25.2h10V46h24.4V25.2h10v49.7h-10V54.1H10v20.7H0V25.2z"/>
	<path d="M58.8,25.2h10v25.9l27.1-25.9h13.4L87,45.6l22.7,29.3H97.3L80.1,51.5L68.8,62v12.9h-10V25.2z"/>
	<path d="M185.3,48v26.9h-7.9l-0.9-7c-3,4.7-9.1,7.7-16.5,7.7c-18.3,0-27-11.9-27-25.6c0-13.6,8.5-25.6,26.9-25.6
		c11,0,19.8,5,24.3,14.3l-8.9,3.3c-2.6-6.8-8.4-9.8-15.5-9.8c-11.8,0-16.9,8.3-16.9,17.5c0,9.9,5.1,17.9,17,17.9
		c8.7,0,14.9-4.3,15.2-12.4H163V48H185.3z"/>
	<path d="M196,39.8h9.4v5.9c1.7-4.3,6.2-6.6,10.6-6.6c2.6,0,5.3,0.8,7.2,2.5l-4.4,7c-1.3-0.8-2.8-1.2-4.3-1.2
		c-4.5,0-9.2,3.7-9.2,12.7v14.8H196V39.8z"/>
	<path d="M222.7,57.2c0-9.9,8-18.2,20.2-18.2s20.2,8.3,20.2,18.2c0,9.9-8,18.4-20.2,18.4S222.7,67.2,222.7,57.2z M253.1,57.2
		c0-5.8-2.9-10.8-10.2-10.8c-7.3,0-10.2,5-10.2,10.8s2.9,11,10.2,11C250.2,68.2,253.1,63,253.1,57.2z"/>
	<path d="M272.3,65.2V46.9H266v-7.2h6.5v-8.7l9.5-6.1v14.8h9.9v7.2h-9.9v16.7c0,3.4,1.9,4.4,4.4,4.4c2,0,4.2-0.7,5.5-1.3v7.8
		c-1.5,0.5-4.3,1.1-7.2,1.1C276.9,75.6,272.3,71.6,272.3,65.2z"/>
	<path d="M296.8,57.5c0-9.1,6-18.4,19.3-18.4c13.8,0,18.3,9.9,18.3,17.7c0,1.4-0.2,2.9-0.4,3.4h-27c0.8,4.6,3.7,7.7,9.9,7.7
		c3.5,0,6.7-1,9.5-3.7l6.6,5.2c-4.3,4.3-9.5,6.3-16.2,6.3C303.2,75.6,296.8,66.9,296.8,57.5z M324.9,53.9c0-0.8-0.1-1.5-0.3-2.2
		c-1-3.6-4.4-5.5-8.6-5.5c-5.7,0-8.2,3.3-9.1,7.7H324.9z"/>
	<path d="M337.8,65.8l7.7-3c1.1,2.5,3.2,5.8,8.4,5.8c4.5,0,6.4-2.3,6.4-4.2c0-5.9-19.8-1.9-19.8-14.3c0-7.4,7-10.9,14.6-10.9
		c6.8,0,11.9,2.9,14.9,7.6l-7.5,3.6c-1.3-2.2-3.5-4.5-7.8-4.5c-3.2,0-5.1,1.4-5.1,3c0,5.3,20,2.1,20,15c0,8.1-7.9,11.7-15.4,11.7
		C346,75.6,339.7,71.2,337.8,65.8z"/>
	<path d="M378.3,25.2h9.6v29.1l14.9-14.6h12.5l-14.7,13.6l16.4,21.5h-11.4L394,58.6l-6.1,6v10.3h-9.6V25.2z"/>
</g>
</svg>
