<?xml version="1.0" encoding="utf-8"?>
<!-- Generator: Adobe Illustrator 22.1.0, SVG Export Plug-In . SVG Version: 6.00 Build 0)  -->
<svg version="1.1" id="Layer_1" xmlns="http://www.w3.org/2000/svg" xmlns:xlink="http://www.w3.org/1999/xlink" x="0px" y="0px"
	 viewBox="0 0 250 100" style="enable-background:new 0 0 250 100;" xml:space="preserve">
<g>
	<path d="M45.3,24.1L25.9,49.3l19.4,25.2H28.6L14.7,56.4v18.1H0V24.1h14.7v18.1l13.9-18.1H45.3z"/>
	<path d="M62.6,75.9c-2.5,0-4.8-0.4-7-1.3c-2.2-0.8-4.1-2-5.7-3.4c-1.6-1.4-2.9-3.1-3.8-5c-0.9-1.9-1.4-4-1.4-6.2
		c0-2.2,0.5-4.3,1.4-6.2c0.9-1.9,2.2-3.6,3.8-5.1c1.6-1.4,3.5-2.6,5.7-3.4c2.2-0.8,4.5-1.3,7-1.3c2.5,0,4.8,0.4,7,1.3s4.1,2,5.7,3.4
		c1.6,1.4,2.9,3.1,3.8,5.1c0.9,1.9,1.4,4,1.4,6.2c0,2.2-0.5,4.3-1.4,6.2c-0.9,1.9-2.2,3.6-3.8,5c-1.6,1.4-3.5,2.6-5.7,3.4
		C67.4,75.5,65,75.9,62.6,75.9z M62.6,55.1c-1.5,0-2.7,0.5-3.8,1.4c-1,0.9-1.6,2.1-1.6,3.4c0,1.3,0.5,2.4,1.6,3.4
		c1,0.9,2.3,1.4,3.8,1.4c1.5,0,2.7-0.5,3.8-1.4c1-0.9,1.6-2.1,1.6-3.4c0-1.4-0.5-2.5-1.6-3.4C65.3,55.6,64,55.1,62.6,55.1z"/>
	<path d="M97.1,24.1v50.4H84.5V24.1H97.1z"/>
	<path d="M101.2,44h23.4v30.5H112V58.2h-10.8V44z M112,24.1h12.6v14.4H112V24.1z"/>
	<path d="M161.2,44l-11.7,15.4l11.7,15.1h-14.4l-5.7-7.2v7.2h-12.6V24.1h12.6v27.4l5.7-7.6H161.2z"/>
	<path d="M176.2,74.6c-2.2-0.8-4.1-2-5.7-3.4c-1.6-1.4-2.9-3.1-3.8-5c-0.9-1.9-1.4-4-1.4-6.2c0-2.2,0.5-4.3,1.4-6.2
		c0.9-1.9,2.2-3.6,3.8-5.1c1.6-1.4,3.5-2.6,5.7-3.4c2.2-0.8,4.5-1.3,7-1.3c2.5,0,4.8,0.4,7,1.3s4.1,2,5.7,3.4
		c1.6,1.4,2.9,3.1,3.8,5.1c0.9,1.9,1.4,4,1.4,6.2c0,2.2-0.5,4.3-1.4,6.2c-0.9,1.9-2.2,3.6-3.8,5c-1.6,1.4-3.5,2.6-5.7,3.4
		c-2.2,0.8-4.5,1.3-7,1.3C180.7,75.9,178.4,75.5,176.2,74.6z M173.5,35.3c1.7,0,3.2-0.5,4.4-1.6c1.2-1.1,1.8-2.4,1.8-4
		s-0.6-2.9-1.8-3.9c-1.2-1.1-2.7-1.6-4.4-1.6c-1.7,0-3.2,0.5-4.4,1.6s-1.8,2.4-1.8,3.9s0.6,2.9,1.8,4S171.8,35.3,173.5,35.3z
		 M183.2,55.2c-1.5,0-2.7,0.5-3.8,1.4c-1,0.9-1.6,2-1.6,3.4c0,1.3,0.5,2.4,1.6,3.3c1,0.9,2.3,1.4,3.8,1.4c1.5,0,2.7-0.5,3.8-1.4
		c1-0.9,1.6-2.1,1.6-3.3c0-1.3-0.5-2.5-1.6-3.4C185.9,55.7,184.6,55.2,183.2,55.2z M197.4,33.6c1.2-1.1,1.8-2.4,1.8-4
		s-0.6-2.9-1.8-3.9s-2.7-1.6-4.4-1.6c-1.7,0-3.2,0.5-4.4,1.6s-1.8,2.4-1.8,3.9s0.6,2.9,1.8,4s2.7,1.6,4.4,1.6
		C194.7,35.3,196.1,34.7,197.4,33.6z"/>
</g>
</svg>
