<?xml version="1.0" encoding="utf-8"?>
<!-- Generator: Adobe Illustrator 22.1.0, SVG Export Plug-In . SVG Version: 6.00 Build 0)  -->
<svg version="1.1" id="Layer_1" xmlns="http://www.w3.org/2000/svg" xmlns:xlink="http://www.w3.org/1999/xlink" x="0px" y="0px"
	 viewBox="0 0 600 100" style="enable-background:new 0 0 600 100;" xml:space="preserve">
<g>
	<path d="M61.3,27.6v36.9c0,2.3,2.8,4.2,6.2,4.2l-0.3,1.2H48.3l0.3-1.2c0,0,6.1,0,6.1-4.2V28l-23,42.3h-1.9L10.5,27.6v36.9
		c0,2.1,4.5,4.2,8.6,4.2l-0.3,1.2H0l0.2-1.2c0,0,8.6,0,8.6-4.2V27.6c-0.1-3.2-5.7-4.3-8.5-4.3l0.2-1.1h14l19,41.4l22.6-41.4h11.6
		l-0.3,1.1C67.4,23.3,61.3,22.4,61.3,27.6z"/>
	<path d="M109.9,52.1c0,10-8.7,18.2-19.7,18.2c-11.1,0-19.6-8.2-19.6-18.2c0-10.1,8.6-18.3,19.6-18.3
		C101.2,33.8,109.9,42,109.9,52.1z M90.7,35.1c-7.3-0.1-12.3,7.3-12.5,16.7c-0.3,9.4,4.1,17.1,11.5,17.3c7.5,0.1,12.3-7.3,12.6-16.7
		C102.5,43,98.1,35.2,90.7,35.1z"/>
	<path d="M160.3,68.6l-0.2,1.2h-18.6l0.2-1.2c0,0,5.3,0.1,5.3-3.2V45.9c0-8.1-8-11.4-14.8-4.5c-3.2,3.2-5.3,9.3-5.3,16.8v7.4
		c0,3.1,6.8,2.9,6.8,2.9l-0.3,1.2h-18.6l0.3-1.2c0,0,5.2,0.1,5.2-3.2V39.2c0-2.4-2.4-4.4-5.2-4.3L115,35l0.3-1.2H128l-2.1,17.9h0.6
		c0.3-3.1,1.3-6.2,2.9-9c7-12.3,24.1-12.4,24.1,2.7v19.8C153.6,68.8,160.3,68.6,160.3,68.6z"/>
	<path d="M197,69.2c3.6,0,4.8-3.6,5.3-6.5h1.2c-0.6,3-1.5,7.2-6.3,7.6c-6.1,0.6-8.6-2.6-9.4-5.4c-0.6-1.3-0.7-2.9-0.6-4.3l1-8.9
		h-0.7c-0.3,3-1.2,6.8-2.7,9.6c-6.9,12-20.2,11.2-21.8,3.4c-2.4-11,24.1-18.4,24.1-18.4v-1.4c0,0,0.4-10-8.6-10c-5.5,0-7.8,5-8,8.7
		h-5.2c0-4.5,3.3-9.9,13.2-9.9c15.6,0,14.9,11.2,14.9,11.2C193.4,66.9,193.4,69.2,197,69.2z M170.5,62.1c1.7,5.7,16.5,3.4,16.6-14.7
		v-0.1C187,47.2,168.2,54.1,170.5,62.1z"/>
	<path d="M216.4,52.7h0.5c0.3-3.1,1.6-7.2,3.2-10c5.5-9.6,17-11.7,21.9-5.1l-6.5,6c0-6-7.6-7.3-12.7-2.1c-3.2,3.2-5.3,9.3-5.3,16.8
		v7.4c0,2.2,2,2.9,6.8,2.9l-0.3,1.2h-18.6l0.3-1.2c3.6-0.1,5.2-0.6,5.2-3.2V39.2c-0.1-2.5-2.4-4.5-5.2-4.3h-0.2l0.3-1.2h12.7
		L216.4,52.7z"/>
	<path d="M278.3,58.5l1.1,0.5c0,0-4.2,11.2-17.6,11.2c-6,0-10-2.4-13-5.4c-6.1-6.3-6.5-16.2-1.5-23.3c2.8-4,8.6-7.8,16.1-7.8
		c13.6,0,12.4,10.2,12.4,10.2H271c0,0,1.6-8.9-7.5-8.9c-12.8,0-12.1,15.5-12.1,15.5s-0.4,13.2,10.9,14.8
		C273.6,66.9,278.3,58.5,278.3,58.5z"/>
	<path d="M327.9,68.6l-0.2,1.2H309l0.3-1.2c3.6-0.1,5.2-0.5,5.2-3.2V45.9c0-8.1-7.9-11.4-14.8-4.5c-3.2,3.2-5.3,9.3-5.3,16.8v7.4
		c0,2.2,2,2.9,6.8,2.9l-0.3,1.2h-18.6l0.3-1.2c3.6,0,5.2-0.6,5.2-3.2V27.8c0-2.5-2.2-4.5-5-4.4l0.2-1.2h11.3l-0.2,5.8l-0.7,23.7h0.5
		c0.2-3.1,1.5-6.2,3.1-9c7.1-12.3,24.1-12.4,24.1,2.7v19.9C321.2,67.6,323,68.6,327.9,68.6z"/>
	<path d="M392.8,46c0,24.2-27.2,23.8-27.2,23.8h-19.7l0.3-1.2c0,0,5.5,0,5.5-3.2V27.7c0-3.2-2.6-4.4-5.4-4.4h-0.2l0.3-1.1h19.1
		C365.6,22.2,392.8,21.8,392.8,46z M385.3,46c0-22.9-19.7-22.8-19.7-22.8h-7.3v45.4h7.3C365.6,68.6,385.3,68.9,385.3,46z"/>
	<path d="M415.8,68.6l-0.3,1.2h-18.7l0.3-1.2c3.6,0,5.2-0.6,5.2-3.2V39.2c-0.1-2.5-2.3-4.4-5.2-4.4h-0.2l0.3-1.1h11.5v31.4
		C408.9,67.6,410.9,68.6,415.8,68.6z M400.1,25c0-2.2,2-4,4.6-4c2.6,0,4.5,1.8,4.5,4c0,2.4-1.9,4.1-4.5,4.1
		C402.1,29.1,400.1,27.4,400.1,25z"/>
	<path d="M434.4,70.3c-5.3-0.2-8.2-1.7-10.9-1.7c-1.8,0-2.3,0.9-2.4,1.7H420l-2.9-13.4h1.1c0,0,8.9,12.5,18.2,12.5
		c7.6,0,13.6-8.6-2.7-13.9c0,0-9.2-3-10-3.2c-11.9-4-7-18.4,7.5-18.4c3.2,0,5.9,0.9,5.9,0.9c3.2,1.2,2.8-1.2,2.8-1.2h1l2.7,13.3
		h-1.2c0,0-4-11.6-14.1-11.6c-7.2,0-11.7,8.1,3.2,13l9.3,3C453.7,55.4,448.6,70.9,434.4,70.3z"/>
	<path d="M493.1,52c0,10.1-7.8,18.3-16.6,18.3c-6.5,0-11.2-3.5-13.6-8.8v12.9c0,2.5,2.3,3.4,6.8,3.4l-0.2,1.1H451l0.3-1.1
		c3.8-0.2,5.2-0.8,5.2-3.3l-0.2-34.9c0-4.8-5.2-4.7-5.2-4.7l0.2-1.2h12.7l-1,8.4h0.9c2.5-5.3,7-8.8,12.8-8.4
		C485.7,34.3,493.1,41.8,493.1,52z M485.5,51.9c0-2.6-0.2-5-1-7.2v-0.1c-1.6-5.5-5.3-9.2-10.3-9.1c-1.2,0-2.4,0.1-3.6,0.7
		c-4.2,1.7-6.7,6.3-7.3,12.2c-0.1,1.1-0.2,2.2-0.2,3.5c0.2,8.1,3.4,15,9.2,16.3c0.6,0.3,1.5,0.4,2.4,0.4
		C481.6,68.6,485.5,61.2,485.5,51.9z"/>
	<path d="M518,68.5l-0.2,1.3H498l0.3-1.3c3.8-0.1,5.6-0.6,5.6-3.4V27.9c0-2.6-2.5-4.7-5.5-4.7h-0.1l0.2-1.1h12.3v42.7
		C510.8,67.5,512.7,68.5,518,68.5z"/>
	<path d="M555,69.2c3.6,0,4.8-3.6,5.3-6.5h1.2c-0.6,3-1.5,7.2-6.3,7.6c-6.1,0.6-8.6-2.6-9.4-5.4c-0.6-1.3-0.7-2.9-0.6-4.3l1-8.9
		h-0.7c-0.3,3-1.2,6.8-2.7,9.6c-6.9,12-20.2,11.2-21.8,3.4c-2.4-11,24.1-18.4,24.1-18.4v-1.4c0,0,0.4-10-8.6-10c-5.5,0-7.8,5-8,8.7
		h-5.2c0-4.5,3.3-9.9,13.2-9.9c15.6,0,14.9,11.2,14.9,11.2C551.5,66.9,551.5,69.2,555,69.2z M528.6,62.1c1.7,5.7,16.5,3.4,16.5-14.7
		v-0.1C545,47.2,526.2,54.1,528.6,62.1z"/>
	<path d="M565.5,79.1v-9.4c13.2,7.2,15.1,0.1,15.1,0.1L563.9,38c-1.5-3.2-5.9-3-5.9-3l0.2-1h21.2l-0.3,1c0,0-9.2-0.1-8,3.4
		l11.2,24.9l8.2-21.8l1.1-3.1c1.2-3.7-5.7-3.4-5.7-3.4l0.3-1h13.3l-0.4,1c0,0-4-0.4-5.7,3.4l-12,31.3
		C577.1,81.5,565.5,79.1,565.5,79.1z"/>
</g>
</svg>
