<?xml version="1.0" encoding="utf-8"?>
<!-- Generator: Adobe Illustrator 22.1.0, SVG Export Plug-In . SVG Version: 6.00 Build 0)  -->
<svg version="1.1" id="Layer_1" xmlns="http://www.w3.org/2000/svg" xmlns:xlink="http://www.w3.org/1999/xlink" x="0px" y="0px"
	 viewBox="0 0 500 100" style="enable-background:new 0 0 500 100;" xml:space="preserve">
<g>
	<path d="M2.3,44c0-16.4,13.1-26.8,32.5-26.8c19.3,0,32.4,10.4,32.4,26.8c0,16.4-13.1,26.9-32.4,26.9C15.4,70.9,2.3,60.4,2.3,44z
		 M50.1,44c0-8.6-6.2-14.4-15.3-14.4S19.4,35.4,19.4,44c0,8.7,6.3,14.4,15.4,14.4S50.1,52.7,50.1,44z"/>
	<path d="M89.1,65.5h-0.8v4.3H73.1V16.1h15.1V37h0.8c2.7-3.4,6.8-5.3,12.1-5.3c10.9,0,18.4,7.7,18.4,19.5c0,12-7.4,19.5-18.5,19.5
		C95.7,70.7,91.8,68.9,89.1,65.5z M104.4,51.2c0-4.7-3.5-8.2-8.4-8.2c-4.8,0-8.4,3.5-8.4,8.2c0,4.7,3.6,8.2,8.4,8.2
		C100.9,59.4,104.4,55.9,104.4,51.2z"/>
	<path d="M115,85.5V75.1c1.3,0.3,3.1,0.4,4.7,0.4c3.3,0,5.5-1.9,5.5-4.8V32.6h15.2v39.6c0,8.6-6.2,14.5-15.3,14.5
		C121.7,86.8,117.8,86.3,115,85.5z M124.3,21.2c0-4.3,3.6-7.3,8.6-7.3c5,0,8.6,3,8.6,7.3s-3.6,7.4-8.6,7.4
		C127.9,28.6,124.3,25.5,124.3,21.2z"/>
	<path d="M146.2,51.1c0-11.8,9.7-19.4,23.5-19.4c13.7,0,22.8,7.6,22.8,19.5c0,1.1-0.1,3-0.2,3.7h-30.4c1,4,4,6.6,8.6,6.6
		c3.6,0,6.2-1.7,7.5-4l13,2.1c-2.1,7-10.7,11.2-21.3,11.2C155.7,70.7,146.2,63,146.2,51.1z M177.2,47.7c-0.4-3.7-3.6-6.7-7.8-6.7
		c-4.2,0-6.9,2.6-7.8,6.7H177.2z"/>
	<path d="M196.7,51.2c0-12,9.3-19.5,23.2-19.5c11.9,0,20.7,5.5,22,14.8l-14,1.6c-0.8-3.3-4.1-5.6-7.8-5.6c-4.8,0-8.3,3.6-8.3,8.7
		c0,5.1,3.5,8.7,8.2,8.7c3.8,0,7-2.3,7.8-5.5l14,1.5c-1.4,9.3-10.1,14.8-22,14.8C206.2,70.7,196.7,63,196.7,51.2z"/>
	<path d="M249.6,56.4V42.2h-5.3v-9.6h5.9l2.7-11.6h11.9v11.6h8.7v9.6h-8.7v13.5c0,2.9,1.9,4.8,4.9,4.8c1.1,0,2.7-0.2,4-0.5v9.4
		c-2.7,0.9-6.5,1.3-9.1,1.3C255.4,70.7,249.6,65,249.6,56.4z"/>
	<path d="M297.7,52.8h16c0.1,4.3,4,7.1,11,7.1c5.5,0,9-1.8,9-5c0-3.7-4.8-4.6-10.7-5.3c-9.9-1.2-24.9-2.3-24.9-15.6
		c0-10.2,9.8-16.8,25.1-16.8c15.3,0,25.6,7.3,25.6,18h-15.4c0-4.5-3.8-7.1-9.6-7.1c-5.4,0-8.6,2-8.6,4.9c0,3.9,5.7,4.5,12.4,5.4
		c9.8,1.3,23.2,3.2,23.2,15.6c0,10.2-10.6,16.8-26.7,16.8C308.2,70.9,297.7,63.5,297.7,52.8z"/>
	<path d="M354.2,60c0-7.2,6.5-11,20.2-12.7l7.3-0.8v-1.7c0-2.7-2-4.6-5.5-4.6c-3.3,0-5.7,1.9-5.7,5h-14.6c0-8.3,8-13.6,20.4-13.6
		c12.4,0,20.5,5.3,20.5,13.7v24.4h-15.2v-4.4h-0.8c-2.3,3.5-7.3,5.3-12.8,5.3C359.8,70.7,354.2,66.8,354.2,60z M381.6,55.9v-2.2
		l-6.7,0.9c-4.4,0.5-6.2,2-6.2,4.2c0,2.3,1.9,3.8,5.2,3.8C378.5,62.5,381.6,59.7,381.6,55.9z"/>
	<path d="M403.4,32.6h15.1v5.5h0.8c3.3-4.3,6.8-6.3,11.7-6.3c8.6,0,14.7,6.3,14.7,14.8v23.2h-15.1V49.1c0-3.6-2.3-6-5.8-6
		c-3.6,0-6.3,2.6-6.3,6.3v20.5h-15.1V32.6z"/>
	<path d="M450.7,57.6h12.8c0,3.2,3.1,5.3,7.8,5.3c3.6,0,6.1-1.4,6.1-3.6c0-2.7-3.6-3.1-7.9-3.5C462,55.1,451,54.5,451,44.2
		c0-7.8,7.8-12.7,19.7-12.7c11.5,0,20.1,4.8,20.1,12.5h-13.4c-0.1-2.6-2.8-4.3-6.7-4.3c-3.4,0-5.8,1.4-5.8,3.4c0,2.8,4.9,3,10.5,3.5
		c7.6,0.7,17.1,2.4,17.1,11.2c0,8.3-8.2,13.3-21.4,13.3C458.6,71,450.7,65.9,450.7,57.6z"/>
</g>
</svg>
