<?xml version="1.0" encoding="utf-8"?>
<!-- Generator: Adobe Illustrator 22.1.0, SVG Export Plug-In . SVG Version: 6.00 Build 0)  -->
<svg version="1.1" id="Layer_1" xmlns="http://www.w3.org/2000/svg" xmlns:xlink="http://www.w3.org/1999/xlink" x="0px" y="0px"
	 viewBox="0 0 36 18" style="enable-background:new 0 0 36 18;" xml:space="preserve">
<g>
	<g>
		<path d="M13.8,13.7H6.7l-1.6,3.6H0.2L7.1,0.5h6.4l7.2,16.8h-5.2L13.8,13.7z M12.6,10.5c-0.1-0.5-0.3-0.9-0.4-1.3
			c-0.1-0.4-0.3-0.8-0.4-1.3c-0.2-0.5-0.3-1-0.5-1.5c-0.2-0.5-0.3-1-0.5-1.4c-0.2-0.5-0.3-0.8-0.4-1.2C9.8,5.2,9.4,6.3,9,7.2
			C8.8,7.7,8.7,8.1,8.5,8.5c-0.2,0.4-0.3,0.7-0.4,1c-0.1,0.3-0.3,0.6-0.4,1H12.6z"/>
		<path d="M35.8,17.3H32l-0.5-1.9c-0.6,0.8-1.2,1.3-1.9,1.6S28,17.5,27,17.5c-0.7,0-1.4-0.1-2-0.2c-0.6-0.2-1.2-0.4-1.7-0.7
			c-0.5-0.3-0.9-0.7-1.2-1.1c-0.3-0.4-0.4-1-0.4-1.6c0-0.8,0.1-1.5,0.4-2c0.3-0.5,0.7-1,1.2-1.3c0.5-0.4,1.1-0.6,1.7-0.8
			c0.6-0.2,1.3-0.3,2-0.4c0.7-0.1,1.4-0.1,2.2-0.1s1.4,0,2.1,0.1V9.3c0-0.6-0.2-1.1-0.6-1.4c-0.4-0.3-0.8-0.5-1.4-0.6
			s-1.1-0.1-1.8,0c-0.7,0.1-1.3,0.2-1.8,0.3S24.6,8,24.2,8.1c-0.4,0.1-0.6,0.2-0.7,0.3v-3c0,0,0.2-0.1,0.5-0.2
			c0.3-0.1,0.7-0.2,1.3-0.3c0.5-0.1,1.1-0.2,1.7-0.3c0.6-0.1,1.2-0.1,1.8-0.1c0.6,0,1.3,0.1,2.1,0.2c0.8,0.1,1.6,0.4,2.3,0.7
			c0.7,0.3,1.4,0.8,1.9,1.4c0.5,0.6,0.8,1.4,0.8,2.4V17.3z M31.2,11.7c-0.6,0-1.2,0-1.8,0s-1.1,0.1-1.6,0.1
			c-0.5,0.1-0.9,0.2-1.1,0.5c-0.3,0.2-0.4,0.5-0.4,0.9c0,0.4,0.2,0.8,0.5,1c0.3,0.2,0.6,0.4,1,0.4c0.5,0,1-0.1,1.4-0.2
			c0.4-0.1,0.8-0.3,1.1-0.5c0.3-0.2,0.5-0.5,0.7-0.8c0.2-0.3,0.3-0.6,0.3-1V11.7z"/>
	</g>
</g>
</svg>
