<?xml version="1.0" encoding="utf-8"?>
<!-- Generator: Adobe Illustrator 22.1.0, SVG Export Plug-In . SVG Version: 6.00 Build 0)  -->
<svg version="1.1" id="Layer_1" xmlns="http://www.w3.org/2000/svg" xmlns:xlink="http://www.w3.org/1999/xlink" x="0px" y="0px"
	 viewBox="0 0 36 18" style="enable-background:new 0 0 36 18;" xml:space="preserve">
<g>
	<path d="M6.3,0.3h8.3l6,17.2h-5.8l-0.9-2.6H7L6,17.5H0.2L6.3,0.3z M12.8,11.3l-2.2-6.7h-0.3l-2.2,6.7H12.8z"/>
	<path d="M21.4,14.2c0-2.4,2.2-3.7,6.7-4.2l2.4-0.3V9.2c0-0.9-0.7-1.5-1.8-1.5c-1.1,0-1.9,0.6-1.9,1.7h-4.9c0-2.8,2.7-4.5,6.8-4.5
		c4.1,0,6.8,1.8,6.8,4.6v8.1h-5.1V16h-0.3c-0.8,1.2-2.5,1.8-4.3,1.8C23.3,17.8,21.4,16.5,21.4,14.2z M30.5,12.8v-0.7l-2.2,0.3
		c-1.5,0.2-2.1,0.7-2.1,1.4c0,0.8,0.6,1.3,1.8,1.3C29.5,15,30.5,14.1,30.5,12.8z"/>
</g>
</svg>
