<?xml version="1.0" encoding="utf-8"?>
<!-- Generator: Adobe Illustrator 22.1.0, SVG Export Plug-In . SVG Version: 6.00 Build 0)  -->
<svg version="1.1" id="Layer_1" xmlns="http://www.w3.org/2000/svg" xmlns:xlink="http://www.w3.org/1999/xlink" x="0px" y="0px"
	 viewBox="0 0 36 18" style="enable-background:new 0 0 36 18;" xml:space="preserve">
<g>
	<g>
		<path d="M18.1,17.2l-0.8-2.6H12l-0.8,2.6H6.2l5.1-16.8h6.8l5.1,16.8H18.1z M13.4,10.1H16l-1.3-4.3L13.4,10.1z"/>
		<path d="M32.4,8h3.5v9.2h-1.4l-1.5-0.9c-0.5,0.4-1.1,0.8-1.8,1s-1.4,0.4-2.2,0.4c-0.8,0-1.6-0.1-2.3-0.4c-0.7-0.3-1.4-0.7-1.9-1.1
			c-0.5-0.5-1-1-1.3-1.7c-0.3-0.6-0.5-1.3-0.5-2.1c0-0.7,0.2-1.4,0.5-2.1c0.3-0.6,0.7-1.2,1.3-1.7c0.5-0.5,1.2-0.9,1.9-1.1
			S28.1,7,28.9,7c0.6,0,1.2,0.1,1.8,0.2C31.3,7.4,31.9,7.6,32.4,8z M28.9,13.9c0.5,0,0.9-0.2,1.2-0.5c0.3-0.3,0.5-0.7,0.5-1.1
			c0-0.5-0.2-0.8-0.5-1.1c-0.3-0.3-0.8-0.5-1.2-0.5c-0.5,0-0.9,0.2-1.3,0.5c-0.3,0.3-0.5,0.7-0.5,1.1c0,0.4,0.2,0.8,0.5,1.1
			S28.4,13.9,28.9,13.9z"/>
	</g>
</g>
</svg>
