<?xml version="1.0" encoding="utf-8"?>
<!-- Generator: Adobe Illustrator 22.1.0, SVG Export Plug-In . SVG Version: 6.00 Build 0)  -->
<svg version="1.1" id="Layer_1" xmlns="http://www.w3.org/2000/svg" xmlns:xlink="http://www.w3.org/1999/xlink" x="0px" y="0px"
	 viewBox="0 0 36 18" style="enable-background:new 0 0 36 18;" xml:space="preserve">
<g>
	<g>
		<path d="M21.5,17.1l-0.1,0.4h-9.2l0.1-0.4c0,0,4.9,0,4.3-1.6l-1.5-3.9H7.6l-1.5,3.9c-0.5,1.4,4.6,1.6,4.6,1.6l-0.1,0.4H3.6
			l0.1-0.4c0,0,1.4-0.2,1.9-1.6l5.1-13.3L9.4,1.6h4.1l5.4,13.9C19.5,16.9,21.5,17.1,21.5,17.1z M11.5,2.5l-0.3-0.1l-3.4,8.9h7.2
			L11.5,2.5z"/>
		<path d="M32.8,17.3c1.2,0,1.6-1.2,1.8-2.2H35c-0.2,1-0.5,2.4-2.1,2.5c-2,0.2-2.9-0.9-3.1-1.8c-0.2-0.4-0.2-1-0.2-1.4l0.3-3h-0.2
			c-0.1,1-0.4,2.3-0.9,3.2c-2.3,4-6.7,3.7-7.3,1.1c-0.8-3.7,8-6.1,8-6.1V9.2c0,0,0.1-3.3-2.9-3.3c-1.8,0-2.6,1.7-2.7,2.9h-1.7
			c0-1.5,1.1-3.3,4.4-3.3c5.2,0,5,3.7,5,3.7C31.6,16.5,31.6,17.3,32.8,17.3z M24,14.9c0.6,1.9,5.5,1.1,5.5-4.9v0
			C29.5,10,23.2,12.3,24,14.9z"/>
	</g>
</g>
</svg>
