<?xml version="1.0" encoding="utf-8"?>
<!-- Generator: Adobe Illustrator 22.1.0, SVG Export Plug-In . SVG Version: 6.00 Build 0)  -->
<svg version="1.1" id="Layer_1" xmlns="http://www.w3.org/2000/svg" xmlns:xlink="http://www.w3.org/1999/xlink" x="0px" y="0px"
	 viewBox="0 0 36 18" style="enable-background:new 0 0 36 18;" xml:space="preserve">
<g>
	<g>
		<path d="M13.9,0.6h2.5l7.4,16.6h-3.6l-1.5-3.6h-7.1l-1.5,3.6H6.4L13.9,0.6z M17.6,11l-2.5-6l-2.5,6H17.6z"/>
		<path d="M36.2,10.1v7.1h-2.6l-0.2-1.6c-0.9,1.2-2.6,1.8-4.1,1.8c-2.7,0-4.8-1.4-4.8-3.8c0-2.5,2.3-3.4,5.2-3.4h3.6
			c-0.1-1.7-0.6-2.5-2.7-2.5c-1.5,0-2.5,0.8-3.1,1.7L25,7.8c1.3-1.5,2.9-2.6,5.5-2.6C34.1,5.2,36.2,7.2,36.2,10.1z M33.3,12.3
			L33.3,12.3l-3.4-0.1c-1.5,0-2.1,0.7-2.1,1.4c0,0.8,0.7,1.3,2.1,1.3C31.9,15,33.1,13.7,33.3,12.3z"/>
	</g>
</g>
</svg>
