<?xml version="1.0" encoding="utf-8"?>
<!-- Generator: Adobe Illustrator 22.1.0, SVG Export Plug-In . SVG Version: 6.00 Build 0)  -->
<svg version="1.1" id="Layer_1" xmlns="http://www.w3.org/2000/svg" xmlns:xlink="http://www.w3.org/1999/xlink" x="0px" y="0px"
	 viewBox="0 0 383 200" style="enable-background:new 0 0 383 200;" xml:space="preserve">
<style type="text/css">
	.st0{fill:#FFFFFF;}
</style>
<g>
	<path class="st0" d="M157.2,149.8h-55.4l-23.9-39.7h-1l-24.1,39.7H0l48.5-66.9L4.8,23.7h55.9l20.1,33.5h1l20.1-33.5h52.6
		l-44.4,60.5L157.2,149.8z"/>
	<path class="st0" d="M307.4,22.5c-4.9,5.3-12.1,9.2-21.9,11.7c4.6,3.5,8.2,7.6,10.9,12.3c2.6,4.7,3.9,9.7,3.9,14.9
		c0,13.4-5.1,23.5-15.2,30.3c-10.1,6.9-22.7,10.3-37.9,10.3h-18.2c-10,0-15.1,2.3-15.1,6.9c0,2.2,1.1,4,3.3,5.4
		c2.2,1.4,6.1,2,11.7,2h43c14,0,24.6,3.7,31.8,11c7.2,7.3,10.8,17.1,10.8,29.4c0,9.1-2.4,16.9-7.2,23.4
		c-4.8,6.5-11.2,11.5-19.4,14.8c-8.1,3.3-17,5-26.5,5h-70.3c-5.7,0-11-1.4-15.9-4.1c-4.9-2.7-8.7-6.4-11.6-11.1
		c-2.9-4.7-4.3-9.9-4.3-15.7c0-6.2,1.9-11.8,5.7-16.8c3.8-5,8.6-8.8,14.3-11.3c-3.8-2.7-6.9-6-9.1-9.8c-2.2-3.8-3.3-8-3.3-12.4
		c0-6.2,2.3-11.8,6.9-16.8c4.6-5,10.4-8.4,17.2-10.2c-6.2-4-11.2-8.6-14.8-13.7c-3.7-5.2-5.5-10.6-5.5-16.4
		c0-14.7,5.9-25.1,17.8-31.4c11.9-6.3,27.6-9.4,47.2-9.4c8.6,0,15.5,0.5,20.8,1.4c7.8-4.9,12.9-9.4,15.2-13.5c2.3-4.1,3.5-7,3.5-8.7
		h39.2C314.7,9.7,312.3,17.2,307.4,22.5z M208.2,152.8c-2.3,2-3.5,4.8-3.5,8.5c0,3.7,1.2,6.6,3.6,8.8c2.4,2.2,5.3,3.3,8.8,3.3h37.3
		c3.5,0,6.5-1.1,9-3.2c2.5-2.1,3.7-5.1,3.7-8.7c0-3.7-1.2-6.5-3.6-8.6c-2.4-2.1-5.4-3.1-9.1-3.1h-37.3
		C213.5,149.8,210.5,150.8,208.2,152.8z M222.7,49.7c-3.3,2.7-5,6.6-5,11.7c0,5.3,1.6,9.2,4.7,11.8s7.5,3.9,13.3,3.9
		s10.2-1.3,13.5-3.9c3.3-2.6,4.9-6.6,4.9-11.8c0-5.3-1.6-9.2-4.9-11.8c-3.3-2.6-7.8-3.9-13.5-3.9C230.3,45.6,226,47,222.7,49.7z"/>
	<path class="st0" d="M332.4,149.8v-47.6H383v47.6H332.4z"/>
</g>
</svg>
